<svg width="1920" height="908" viewBox="0 0 1920 908" fill="none" xmlns="http://www.w3.org/2000/svg">
<g clip-path="url(#clip0_56_102)">
<rect width="1920" height="908" fill="#D4C9B5"/>
<path d="M589.304 2303.01C651.755 2320.57 717.245 2325.4 782.071 2330.12C818.025 2332.76 854.029 2335.39 889.972 2337.98C988.859 2345.18 1083.83 2331.52 1181.44 2325.92C1285.23 2319.98 1396.27 2270.71 1483.52 2217.04C1576.69 2159.72 1657 2083.74 1731.58 2003.64C1797.34 1933 1859.25 1858.72 1916.87 1781.27C1937.98 1752.87 1958.64 1723.89 1974.13 1692.03C1990.63 1658.09 2000.96 1621.51 2011.23 1585.16C2031.91 1511.9 2052.55 1438.69 2073.23 1365.42C2096.23 1283.96 2121.46 1198.54 2122.19 1113.23C2122.94 1026.85 2097.69 933.528 2074.75 850.59C2026.41 675.967 1947.76 509.707 1842.81 362.123C1820.28 330.445 1796.44 299.494 1768.03 272.99C1733.02 240.334 1691.76 215.171 1655.74 183.651C1619.5 151.862 1588.7 113.719 1549.52 85.5805C1513.39 59.6197 1471.43 43.2384 1429.38 28.7932C1108.94 -81.3136 754.424 -88.9645 429.789 7.19264C395.731 17.2631 361.647 28.6166 331.253 47.0563C308.636 60.7388 288.507 78.11 268.518 95.3959C159.267 189.646 56.2385 283.486 -40.8406 390.121C-67.4039 419.286 -94.2006 448.824 -113.325 483.367C-127.45 508.892 -137.099 536.587 -146.619 564.146C-169.038 628.87 -191.508 693.606 -213.927 758.33C-233.271 814.209 -252.694 870.213 -265.571 927.914C-324.105 1190.23 -289.217 1518.53 -144.137 1748.79C-98.6815 1820.89 -38.8729 1882.63 20.4325 1943.79C53.8883 1978.24 87.3556 2012.74 120.761 2047.2C140.964 2068.02 161.303 2088.97 184.744 2106.07C207.282 2122.47 232.293 2135.06 257.18 2147.58C320.144 2179.22 383.158 2210.85 446.122 2242.5C487.432 2263.23 528.927 2284.08 572.915 2298.19C578.355 2299.93 583.833 2301.6 589.327 2303.12L589.304 2303.01ZM-182.928 1387.38C-184.601 1375.42 -187.169 1363.71 -192.645 1352.99C-194.373 1349.61 -196.331 1346.38 -197.668 1342.86C-201.426 1332.91 -199.938 1321.77 -201.869 1311.46C-203.353 1303.34 -205.214 1295.2 -206.659 1287.01C-209.643 1270.24 -213.205 1251.63 -207.616 1234.97C-206.828 1232.61 -205.704 1230.33 -203.986 1228.56C-199.475 1223.91 -191.943 1223.89 -185.794 1225.94C-179.645 1228 -174.143 1231.64 -167.939 1233.47C-150.701 1238.52 -131.851 1222.98 -116.016 1229.1C-107.619 1232.4 -105.157 1247.59 -103.912 1255.13C-94.8477 1311.75 -102.229 1372.14 -78.7551 1424.46C-76.5675 1429.39 -74.0886 1434.19 -72.2311 1439.3C-69.7556 1446.19 -68.5685 1453.47 -66.7373 1460.56C-62.8898 1475.54 -56.9083 1489.87 -52.7973 1504.84C-48.5433 1520.21 -43.7383 1535.66 -34.57 1548.84C-33.0569 1551.05 -31.3419 1553.21 -30.1588 1555.6C-28.7088 1558.46 -27.9303 1561.63 -27.1014 1564.8C-23.3233 1579.47 -18.7883 1593.98 -12.7865 1607.93C-2.97046 1630.91 10.5834 1652.13 24.0526 1673.22C35.1227 1690.54 44.8436 1710.08 58.2323 1725.7C64.946 1733.48 72.8874 1740.12 79.7798 1747.76C88.9955 1757.89 96.2346 1769.59 104.177 1780.66C149.371 1843.71 216.611 1886.41 275.744 1936.59C289.116 1947.96 302.634 1960.2 319.086 1966.92C335.363 1973.58 349.949 1983.28 365.902 1991.08C389.306 2002.44 413.655 2011.67 437.992 2020.85C466.567 2031.62 495.154 2042.43 523.678 2053.21C534.196 2057.19 544.763 2061.16 555.815 2063.53C566.692 2065.84 577.839 2066.54 588.924 2067.2C655.609 2071.22 722.306 2075.3 788.991 2079.33C821.067 2081.26 853.295 2083.15 885.433 2080.71C901.288 2079.48 917.126 2077.24 932.532 2073.35C938.197 2071.89 961.574 2061.07 966.833 2066.2C972.178 2071.47 955.57 2084.74 952.209 2088.38C940.548 2101 928.604 2113.31 916.39 2125.36C910.935 2130.75 904.883 2135.86 900.196 2141.83C895.341 2147.99 892.056 2154.76 884.688 2158.52C881.935 2159.94 878.893 2160.8 875.901 2161.64C844.532 2170.94 815.233 2186.04 785.448 2199.71C766.609 2208.33 747.391 2216.44 727.121 2220.65C712.775 2223.61 698.08 2224.57 683.435 2225.52C663.348 2226.81 641.374 2231.46 621.813 2225.77C602.726 2220.28 585.147 2210.25 565.548 2206.48C546.175 2202.77 525.507 2202.91 508.012 2193.71C497.389 2188.11 488.772 2179.43 478.732 2172.89C450.793 2154.69 413.831 2154.14 386.771 2134.68C380.223 2129.95 374.41 2124.25 367.99 2119.38C345.628 2102.36 316.999 2096.23 291.992 2083.43C277.872 2076.22 267.162 2064.2 253.625 2056.75C240.262 2049.38 229.272 2044.49 217.855 2033.32C192.94 2008.84 168.088 1984.4 143.173 1959.91C130.931 1947.92 118.856 1935.72 106.485 1923.86C95.8033 1913.59 84.2413 1905.27 74.2984 1893.81C66.4538 1884.8 61.9612 1873.27 53.4335 1864.52C45.9514 1856.86 36.7249 1851.09 29.4604 1843.23C17.2896 1830.15 11.3206 1812.62 2.04307 1797.34C-6.38324 1783.46 -17.5589 1771.49 -27.0804 1758.39C-43.8472 1735.19 -55.2519 1708.74 -69.4523 1683.99C-83.3626 1659.82 -102.573 1641.48 -112.613 1615.2C-115.754 1607.03 -117.516 1598.39 -120.657 1590.22C-124.647 1579.96 -130.804 1570.67 -135.466 1560.72C-141.164 1548.56 -144.6 1535.61 -147.582 1522.56C-149.985 1512.04 -155.41 1503.17 -158.38 1492.73C-160.339 1485.78 -161.592 1478.67 -163.753 1471.77C-166.644 1462.37 -171.164 1453.5 -174.156 1444.13C-179.999 1425.99 -180.352 1406.32 -182.967 1387.45L-182.928 1387.38ZM834.401 585.093C853.461 576.055 873.991 577.165 905.183 588.929C951.54 606.434 1006.56 618.395 1048.29 644.725C1091.53 672.042 1135.5 699.992 1168.49 739.124C1179.99 752.779 1190.03 767.674 1201.54 781.328C1229.22 814.222 1265.12 839.599 1291.29 873.744C1303.08 889.141 1312.74 906.092 1321.63 923.378C1380.85 1038.31 1408.14 1169.58 1399.62 1298.61C1398.39 1316.93 1396.45 1335.36 1390.59 1352.71C1384.26 1371.46 1373.48 1388.39 1366.16 1406.78C1360.36 1421.35 1359.36 1436.96 1354.71 1451.43C1349.79 1466.82 1339.45 1478.97 1330.01 1492.25C1272.37 1573.33 1213.53 1655.68 1135.14 1716.81C1091.84 1750.54 1043.12 1777.27 991.408 1795.57C958.41 1807.27 924.312 1815.54 890.276 1823.85C835.968 1837.05 780.555 1850.3 724.809 1846.06C666.08 1841.55 610.656 1817.81 557.146 1793.16C501.496 1767.51 446.427 1740.45 393.205 1710.09C368.425 1695.96 343.938 1681.01 322.144 1662.52C283.213 1629.43 254.325 1586.17 228.48 1542.05C191.814 1479.39 160.354 1412.55 143.058 1341.74C134.24 1305.7 129.222 1268.64 129.603 1231.52C129.758 1216.63 127.529 1191.55 134.037 1177.98C141.525 1162.43 161.843 1159.6 178.239 1152.61C402.315 1057.02 549.935 890.734 692.652 729.927C725.663 692.743 758.725 655.547 792.748 619.303C808.022 602.988 820.802 591.553 834.312 585.167L834.401 585.093ZM1019.07 534.488C1018.82 530.129 1020.32 525.316 1024.35 519.977C1032.44 509.35 1046.92 506.306 1060.16 504.771C1094.66 500.826 1129.48 501.97 1164.15 503.199C1190.69 504.107 1217.27 505.004 1243.74 507.257C1323.14 513.966 1401.49 532.996 1475.37 562.944C1533.1 586.312 1588.16 616.356 1639.06 652.353C1691.8 689.684 1733.81 735.058 1779.69 779.758C1787.2 787.088 1794.72 794.418 1800.94 802.84C1805.26 808.719 1808.92 815.012 1812.59 821.305C1872.42 924.494 1932.35 1027.87 1982.14 1136.34C1991.78 1157.39 1998.98 1177.78 2003.18 1200.55C2006.22 1217.1 2017.41 1231.73 2017.37 1249.19C2017.31 1262.88 2000.64 1266.32 1990.07 1270.97C1972.48 1278.77 1954.66 1286.03 1936.22 1291.52C1913.67 1298.27 1890.44 1302.3 1867.42 1307.25C1757.15 1330.63 1651.47 1372.66 1550.83 1423.54C1540.94 1428.57 1531.01 1433.66 1520.48 1437.29C1508.57 1441.39 1496.09 1443.45 1484.14 1447.35C1466.86 1453.05 1453.74 1466.69 1436.72 1472.82C1414.11 1480.96 1432.15 1450.02 1435.2 1441.55C1446.18 1411.32 1454.41 1379.75 1463.95 1348.99C1467.65 1337.08 1471.37 1325.05 1472.61 1312.58C1473.39 1304.58 1473.19 1296.54 1472.96 1288.55C1470.99 1222.8 1469.08 1157.04 1467.11 1091.29C1466.92 1084.42 1466.71 1077.44 1464.49 1070.98C1462.68 1065.64 1459.63 1060.86 1457.28 1055.7C1454.74 1050.16 1453.02 1044.27 1451.27 1038.45C1442.27 1007.67 1437.18 969.349 1418.6 943.101C1398.01 914.068 1384.82 877.011 1369.11 844.998C1362.57 831.699 1356.02 818.349 1347.75 806.084C1336.62 789.681 1322.55 775.495 1308.62 761.437C1282.36 735.029 1256.15 708.609 1229.88 682.15C1207.41 659.508 1184.81 636.787 1159.04 618.09C1133.27 599.393 1105.59 587.463 1076.18 576.038C1065.29 571.821 1054.89 565.098 1044.32 559.743C1034.37 554.728 1019.9 547.177 1019.1 534.375L1019.07 534.488ZM927.694 1896.08C940.64 1892.8 953.447 1888.91 966.253 1885.03C979.363 1881.08 992.523 1877.11 1005.63 1873.16C1034.04 1864.59 1060.76 1855.4 1085.76 1839.63C1091.37 1836.06 1122.02 1816.87 1116.13 1836.41C1112.59 1848.08 1100.81 1857.37 1095.12 1868.04C1089.1 1879.31 1083.14 1890.62 1077.18 1901.94C1068.63 1918.2 1060.04 1934.48 1051.48 1950.7C1047.22 1958.75 1042.86 1967.78 1035.93 1973.94C1025.58 1983.23 1002.73 1985.89 989.621 1989.16C969.625 1994.1 949.644 1998.88 929.463 2003.01C889.919 2011.14 849.658 2016.83 809.15 2016.56C793.521 2016.46 777.898 2015.45 762.275 2014.44C736.522 2012.77 710.779 2011.15 685.076 2009.47C659.923 2007.87 634.708 2006.23 610.109 2000.79C583.508 1994.94 557.911 1984.67 530.931 1980.88C520.452 1979.39 509.829 1978.89 499.518 1976.51C491.67 1974.69 484.107 1971.79 476.66 1968.7C458.181 1961 440.882 1950.8 423.434 1941.11C407.005 1931.93 388.944 1929.78 372.599 1919.57C338.443 1898.32 311.064 1867.7 277.697 1845.26C260.636 1833.77 241.978 1824.36 227.094 1810.1C219.948 1803.21 213.863 1795.4 207.509 1787.8C191.504 1768.63 173.825 1750.96 155.901 1733.61C132.31 1710.74 107.287 1688.57 88.9987 1661.04C79.9167 1647.31 75.7972 1632.76 68.9546 1618.15C61.6446 1602.42 54.2031 1586.34 46.2098 1570.88C36.9946 1553.08 26.6148 1535.76 19.1231 1517.14C12.1222 1499.75 7.77584 1481.42 3.45264 1463.2C-5.9145 1423.83 -15.2814 1384.46 -24.6601 1345.05C-28.5326 1328.8 -32.3893 1312.38 -32.6381 1295.73C-32.913 1278.5 -29.2662 1261.01 -32.7108 1244.07C-33.9924 1237.77 -37.3801 1231.3 -36.6481 1224.75C-35.6795 1215.75 -25.431 1215.54 -18.4811 1213.89C-16.4632 1213.43 -14.4454 1212.97 -12.3583 1212.82C-10.2207 1212.65 -8.05239 1212.84 -5.91478 1212.67C-3.26127 1212.44 -0.711776 1211.75 1.83772 1211.06C8.62891 1209.19 15.4939 1207.41 22.2967 1205.59C29.5031 1203.68 36.7713 1201.8 43.9777 1199.89C48.8867 1198.61 56.6282 1194.39 61.0323 1198.33C62.636 1199.78 63.6876 1201.82 64.4756 1203.88C67.4618 1211.61 66.8633 1219.67 67.1181 1227.75C67.5332 1242.35 69.759 1254.88 72.3548 1269.02C75.0735 1283.94 74.6342 1299.21 75.9057 1314.3C77.8901 1337.15 82.2369 1362.45 89.6811 1384.11C97.7776 1407.69 109.224 1430.14 115.349 1454.39C117.982 1464.75 119.505 1475.37 122.177 1485.67C125.377 1497.81 130.106 1509.45 134.835 1521.09C137.722 1528.15 140.631 1535.3 144.519 1541.87C151.2 1553.22 160.529 1562.69 168.266 1573.32C176.004 1583.95 181.401 1594.8 187.261 1605.8C200.274 1630.24 214.398 1654.41 233.33 1674.78C239.317 1681.24 245.789 1687.26 252.199 1693.25C277.902 1717.23 303.554 1741.22 329.268 1765.25C336.356 1771.88 343.507 1778.55 351.469 1784.12C366.243 1794.42 383.444 1800.71 397.662 1811.83C410.397 1821.8 424.446 1831.95 438.732 1839.64C447.502 1844.34 456.899 1847.84 466.234 1851.29C484.792 1858.17 503.4 1865.04 521.958 1871.93C551.882 1883.02 582.922 1895.51 614.766 1899.68C649.127 1904.17 683.649 1909.37 718.616 1910.48C754.639 1911.57 790.662 1910.09 826.65 1908.47C852.598 1907.28 878.597 1906.07 904.164 1901.35C912.064 1899.91 919.882 1898.13 927.655 1896.14L927.694 1896.08ZM895.15 2250.53C889.554 2225.57 923.705 2203.14 939.195 2188C963.52 2164.13 987.906 2140.31 1012.23 2116.44C1030.05 2098.96 1048.32 2080.9 1058.5 2058.08C1066.78 2039.48 1069.59 2018.08 1082.17 2002.07C1088 1994.61 1095.65 1988.82 1102.34 1982.08C1112.07 1972.19 1119.63 1960.41 1126.83 1948.49C1146.49 1915.85 1163.8 1881.72 1178.59 1846.57C1182.55 1837.15 1186.32 1827.67 1190.95 1818.63C1198.64 1803.51 1208.65 1789.73 1218.63 1776.01C1234.45 1754.2 1250.27 1732.38 1266.11 1710.62C1281 1690.08 1295.95 1663.73 1315.65 1647.52C1331.87 1634.18 1352.91 1627.3 1368.8 1612.75C1383.9 1598.93 1397.75 1583.79 1414.16 1571.53C1428.35 1560.94 1444.21 1552.74 1459.98 1544.66C1519.16 1514.43 1578.93 1485.4 1639.32 1457.71C1651.9 1451.91 1664.56 1446.19 1677.68 1441.6C1688.5 1437.85 1699.61 1434.89 1710.41 1431.09C1758.38 1414.27 1799.6 1381.65 1847.6 1364.78C1889.66 1350 1942.15 1343.49 1986.7 1347.73C1998.79 1348.85 1999.26 1346.25 2002.72 1358.12C2005.26 1366.69 2002.65 1378.52 2001.27 1387.08C1998.3 1405.91 1992.21 1424.11 1990.94 1443.19C1989.74 1461.82 1992.97 1481.79 1984.12 1498.12C1969.97 1524.24 1933.83 1526.59 1908 1532.49C1815.03 1553.74 1724.5 1588.68 1642.89 1638.25C1532.32 1705.34 1440.43 1800.79 1384.5 1918.19C1350.35 1989.85 1330.02 2067.45 1321.01 2146.25C1319.84 2156.47 1320.7 2168.83 1317.96 2178.66C1314.35 2191.46 1309.92 2192.05 1296.8 2198.24C1271.65 2210.16 1245.75 2220.39 1219.24 2228.89C1166.27 2245.84 1111.01 2255.81 1055.47 2258.28C1042.33 2258.83 1029.2 2259.01 1016.03 2259.2C1001.9 2259.4 987.763 2259.54 973.584 2259.75C948.281 2260.05 922.99 2260.4 897.687 2260.7C896.758 2256.87 895.894 2253.55 895.224 2250.62L895.15 2250.53ZM1391.36 2157.26C1388.97 2154.93 1387.42 2150.23 1387.11 2142.37C1386.3 2123.51 1397.29 2098.65 1402.33 2080.52C1407.77 2061.13 1413.65 2041.8 1419.49 2022.53C1425.13 2004 1430.77 1985.47 1437.97 1967.49C1472.61 1881.24 1540.95 1813.74 1607.39 1748.86C1614.59 1741.83 1621.8 1734.81 1629.74 1728.69C1640.31 1720.58 1652.1 1714.11 1663.81 1707.76C1682.37 1697.66 1700.92 1687.57 1719.41 1677.44C1762.37 1654.05 1805.72 1630.52 1852.02 1614.31C1874.47 1606.41 1897.3 1600.87 1920.78 1597C1946.51 1592.77 1940.15 1602.57 1930.66 1620.97C1922.54 1636.77 1913.87 1652.22 1904.59 1667.37C1886.09 1697.68 1865.36 1726.58 1842.6 1753.81C1827.68 1771.69 1811.75 1789.06 1800.79 1809.66C1790.92 1828.25 1785.28 1849.33 1771.89 1865.54C1759.71 1880.29 1742.29 1889.54 1727.98 1902.18C1715.79 1912.95 1706.01 1926.09 1695.71 1938.66C1641.1 2005.58 1570.99 2059.75 1492.52 2095.67C1471.38 2105.35 1449.16 2114.04 1432.34 2130.07C1423.84 2138.19 1400.84 2166.7 1391.23 2157.13L1391.36 2157.26ZM2035.66 1076.75C2035.41 1076.8 2035.15 1076.81 2034.87 1076.77C2034.48 1076.7 2034.16 1076.45 2033.85 1076.26C2025.35 1070.86 2023.79 1062.86 2020.47 1053.45C2017.21 1044.3 2014.24 1035.03 2010.35 1026.12C1981.4 960.525 1943.34 901.052 1908.33 838.649C1896.52 817.614 1884.77 796.191 1868.54 778.347C1850.88 758.914 1828.21 744.032 1813.44 722.343C1807.61 713.778 1803.17 704.361 1796.88 696.113C1787.55 683.825 1774.74 674.723 1762.22 665.665C1732.51 644.143 1703.5 621.716 1675.24 598.374C1658.68 584.701 1643.38 569.52 1625.89 557.074C1608.39 544.628 1588.08 537.03 1569.16 526.932C1527.42 504.805 1483.81 486.3 1438.86 471.719C1422.53 466.457 1406.04 461.657 1389.16 458.598C1364.95 454.178 1340.23 453.333 1315.63 452.516C1271.61 451.027 1227.53 449.551 1183.51 448.063C1143.39 446.694 1102.97 445.445 1063.04 450.472C1042.91 452.995 1023.14 457.3 1003.84 463.628C995.153 466.516 963.191 470.893 972.299 451.516C976.911 441.735 1000.94 433.053 1009.91 427.012C1033.98 410.868 1058.87 395.975 1084.59 382.647C1138.49 354.633 1195.82 333.549 1255.05 320.017C1356.49 296.836 1464.23 324.636 1558.73 362.377C1645.64 397.064 1728 443.434 1805.55 495.693C1821.85 506.655 1837.91 517.939 1853.73 529.544C1865.15 537.95 1868.45 547.519 1875.2 560.345C1888.19 585.103 1901.23 609.901 1914.21 634.66C1930.01 664.788 1945.93 695.208 1954.97 728C1959.1 743.073 1961.78 758.531 1966.87 773.335C1971.19 785.971 1977.26 797.939 1982.13 810.397C1989.51 829.251 1994.08 849.014 1998.69 868.715C2003.72 890.237 2008.73 911.708 2013.7 933.241C2019.55 958.354 2025.4 983.517 2029.82 1008.9C2031.89 1020.72 2034.42 1032.49 2036.18 1044.38C2037.08 1050.4 2037.71 1056.43 2038.2 1062.54C2038.6 1067.08 2041.47 1072.65 2037.11 1076.1C2036.7 1076.4 2036.19 1076.73 2035.68 1076.8L2035.66 1076.75ZM1708.24 352.321C1707.97 352.756 1707.51 353.073 1706.93 353.313C1695.64 358.021 1672.23 339.688 1661.6 334.508C1549.59 280.068 1423.79 250.115 1299.44 244.843C1279.23 243.98 1258.76 243.815 1239.01 248.221C1217.45 253.042 1197.49 263.244 1177.81 273.276C1127.24 299.145 1076.66 324.964 1026.1 350.833C996.155 366.136 966.072 381.524 938.45 400.714C921.228 412.685 905.019 426.074 888.799 439.412C867.806 456.715 846.874 474.056 825.881 491.359C791.102 520.113 756.273 548.879 723.09 579.503C668.207 630.146 619.623 686.055 571.885 743.58C550.319 769.528 527.014 793.904 503.709 818.28C464.263 859.595 424.818 900.91 385.31 942.186C370.067 958.175 354.673 974.198 336.902 987.252C320.941 998.935 303.261 1007.98 285.683 1017C253.189 1033.68 220.633 1050.33 188.139 1067.01C136.964 1093.23 85.5607 1119.61 31.0162 1137.82C-16.0729 1153.58 -65.0868 1162.55 -114.828 1160.66C-141.335 1159.64 -199.183 1179.19 -217.921 1151.55C-221.056 1146.89 -221.101 1140.88 -220.952 1135.26C-220.597 1117.3 -220.293 1099.35 -219.939 1081.39C-219.861 1076.16 -219.744 1070.86 -218.8 1065.7C-217.396 1058.14 -214.192 1051.02 -213.276 1043.42C-212.482 1036.9 -213.391 1030.14 -211.197 1023.94C-208.723 1016.88 -201.759 1013.91 -194.923 1012.93C-179.325 1010.81 -163.59 1011.84 -147.945 1011.09C-132.339 1010.39 -116.027 1005.12 -100.73 1001.68C-67.9178 994.29 -35.2437 986.292 -2.69696 977.737C15.6778 972.9 34.0569 967.849 51.8527 961.175C72.1288 953.508 91.5046 943.759 110.88 934.011C172.09 903.155 233.489 872.203 290.583 834.252C345.602 797.68 403.805 752.505 440.055 696.274C463.224 660.382 497.517 633.92 522.215 599.381C532.957 584.367 539.851 567.147 550.635 551.858C561.665 536.246 573.896 521.478 582.93 504.567C590.933 489.647 596.21 473.488 602.834 457.872C621.542 413.845 650.502 375.192 682.088 339.665C712.787 305.138 743.496 266.936 780.391 239.082C795.825 227.414 812.686 217.813 829.679 208.556C861.014 191.445 892.995 175.303 926.711 163.501C969.819 148.436 1015.1 140.803 1060.08 133.238C1077 130.384 1093.87 127.541 1110.78 124.687C1132.1 121.094 1153.51 117.478 1175.12 116.32C1207.52 114.557 1240.27 119.207 1272.26 114.025C1323.08 105.766 1382.25 124.281 1428.91 143.58C1499.65 172.807 1560.54 221.37 1620.32 269.28C1630.59 277.523 1718.56 337.085 1708.26 352.158L1708.24 352.321ZM1127.33 36.347C1121.44 45.8876 1081.14 43.0176 1069.7 44.7788C1047 48.3174 1024.69 54.0535 1002.9 61.3737C855.716 110.65 720.761 196.246 613.401 308.53C596.531 326.221 580.081 344.827 569.166 366.744C557.818 389.559 552.96 414.989 543.155 438.515C515.776 504.532 453.759 548.344 408.329 603.426C379.313 638.579 356.75 678.751 327.35 713.619C264.065 788.586 173.554 834.066 85.6676 877.563C39.2653 900.512 -7.835 923.194 -57.7804 937.374C-80.1645 943.713 -103.188 947.484 -126.464 948.758C-145.442 949.795 -163.776 955.741 -181.779 948.732C-203.744 940.181 -201.314 927.12 -196.011 907.124C-189.002 880.883 -179.841 855.003 -171.77 828.999C-165.536 808.896 -158.554 780.214 -141.565 766.061C-124.397 751.761 -97.986 750.037 -76.9199 745.596C-55.2482 741.016 -34.6058 737.044 -13.3869 729.322C36.6617 711.181 83.8358 686.034 130.718 661.006C139.562 656.271 148.418 651.587 156.677 645.921C165.116 640.108 172.869 633.388 180.56 626.628C240.109 574.334 297.717 519.822 353.281 463.329C360.776 455.71 368.259 448.04 374.518 439.425C384.944 425.123 391.848 408.645 398.674 392.292C430.405 316.287 462.693 238.771 473.395 156.449C475.233 142.193 472.669 127.719 474.018 113.415C475.574 96.2969 489.875 91.7516 504.294 84.4658C538.367 67.261 575.675 57.9382 612.478 48.7305C643.06 41.1038 673.682 33.4151 704.264 25.7884C741.118 16.5693 778.6 7.3127 816.545 8.91263C830.218 9.51366 843.838 11.5101 857.547 10.8786C869.848 10.356 881.978 7.69098 894.195 6.3361C922.921 3.12494 951.933 6.97869 980.577 11.0768C1005.7 14.648 1030.83 18.4333 1055.88 22.3933C1068.82 24.4384 1081.72 26.5458 1094.63 28.6531C1104.06 30.2224 1120.01 29.8771 1127.28 36.3585L1127.33 36.347ZM400.519 135.318C412.186 143.402 404.528 165.64 402.381 176.454C398.651 194.974 401.67 211.207 393.988 229.618C385.25 250.613 376.5 271.557 367.813 292.54C358.798 314.183 349.64 336.125 335.215 354.534C319.065 375.147 296.592 391.085 285.267 414.693C279.23 427.301 276.768 441.38 270.371 453.804C263.608 466.95 252.804 477.508 242.217 487.856C227.971 501.701 213.775 515.535 199.517 529.329C189.443 539.134 179.369 548.94 168.107 557.26C158.079 564.714 147.185 570.928 136.256 576.991C91.1186 601.992 44.4538 624.256 -3.34701 643.64C-23.558 651.823 -42.1663 659.587 -60.9304 670.154C-73.2458 677.119 -96.9154 686.891 -104.109 668.42C-109.795 653.754 -99.8387 639.719 -94.4496 626.833C-87.7173 610.767 -82.5623 593.837 -76.7137 577.388C-73.246 567.709 -69.7779 558.029 -65.0039 548.956C-59.4205 538.314 -52.1128 528.715 -44.7314 519.206C-2.40223 464.727 43.2507 412.946 88.8534 361.178C99.0115 349.65 109.119 338.135 120.176 327.519C152.514 296.449 192.264 273.424 222.003 239.808C241.752 217.521 257.925 190.039 284.997 177.733C294.562 173.366 305.011 171.244 315.31 169.157C335.037 165.128 344.133 160.336 360.267 149.412C368.946 143.491 387.142 129.275 398.608 134.159C399.318 134.475 399.926 134.815 400.546 135.206L400.519 135.318Z" fill="#CEC2AE"/>
</g>
<defs>
<clipPath id="clip0_56_102">
<rect width="1920" height="908" fill="white"/>
</clipPath>
</defs>
</svg>
