<svg width="127" height="86" viewBox="0 0 127 86" fill="none" xmlns="http://www.w3.org/2000/svg">
<g clip-path="url(#clip0_0_118)">
<path d="M27.33 85.9313L25.5781 81.1462H26.3864L27.3908 83.9559C27.4276 84.0567 27.4627 84.1636 27.4995 84.2773C27.5363 84.3911 27.5714 84.5066 27.6083 84.6229C27.6442 84.7393 27.6785 84.8505 27.7102 84.9582C27.7418 85.0651 27.7718 85.1642 27.7992 85.2547L27.5004 85.2478C27.5458 85.1246 27.5963 84.9892 27.6528 84.841C27.7102 84.6936 27.7692 84.5428 27.8335 84.3902C27.8968 84.2368 27.9576 84.0929 28.0167 83.9559L28.8926 81.9736H29.599L30.4476 83.9412C30.5066 84.0696 30.5666 84.2084 30.6282 84.3592C30.689 84.5083 30.7472 84.6548 30.8046 84.7962C30.8611 84.9375 30.9031 85.0677 30.9296 85.1857L30.6582 85.234C30.6805 85.1564 30.7044 85.0754 30.7293 84.991C30.7541 84.9065 30.7806 84.8177 30.8072 84.7247C30.8346 84.6316 30.8637 84.5385 30.8954 84.4445C30.9271 84.3515 30.9596 84.2584 30.9938 84.167C31.0281 84.0765 31.0606 83.9895 31.0923 83.9076L32.2054 81.1453H32.9932L31.0375 85.9304H30.528L29.1495 82.7113L29.2788 82.738L27.8934 85.9304H27.33V85.9313Z" fill="#B78C57"/>
<path d="M38.2852 85.9314V81.1463H42.2307V81.8582H39.019V85.2212H42.2307V85.9314H38.2852ZM38.6859 83.8336V83.1225H41.8574V83.8336H38.6859Z" fill="#B78C57"/>
<path d="M47.9414 85.9314V81.1463H48.6752V85.2212H51.8536V85.9314H47.9423H47.9414Z" fill="#B78C57"/>
<path d="M57.3125 85.9314V81.1463H58.0463V85.2212H61.2247V85.9314H57.3134H57.3125Z" fill="#B78C57"/>
<path d="M66.6836 85.9314V81.1463H67.4097L71.267 85.0635L71.2259 85.1247C71.2037 84.9885 71.184 84.8411 71.1686 84.6843C71.1523 84.5265 71.1403 84.3654 71.1318 84.1982C71.1223 84.0327 71.1146 83.8638 71.1078 83.6931C71.1009 83.5225 71.0967 83.3544 71.0949 83.1906C71.0924 83.026 71.0907 82.8692 71.0907 82.7192V81.1463H71.8245V85.9314H71.0847L67.2753 82.1581L67.2821 82.0616C67.2907 82.1443 67.3001 82.2417 67.3095 82.3563C67.3181 82.4701 67.3292 82.5934 67.3438 82.7252C67.3566 82.8571 67.3694 82.9933 67.3806 83.132C67.3917 83.2716 67.4011 83.4104 67.408 83.5492C67.4148 83.6879 67.4182 83.8189 67.4182 83.9413V85.9305H66.6845L66.6836 85.9314Z" fill="#B78C57"/>
<path d="M77.75 85.9314V81.1463H81.6956V81.8582H78.4838V85.2212H81.6956V85.9314H77.75ZM78.1507 83.8336V83.1225H81.3222V83.8336H78.1507Z" fill="#B78C57"/>
<path d="M89.3954 85.9999C89.0554 85.9999 88.742 85.9655 88.4544 85.8974C88.1675 85.8284 87.9046 85.7267 87.6675 85.5888C87.4294 85.4527 87.2128 85.2794 87.0193 85.0691L87.4808 84.4537C87.7753 84.7597 88.075 84.9821 88.3807 85.1243C88.6864 85.2656 89.0263 85.3363 89.4031 85.3363C89.6385 85.3363 89.8646 85.3079 90.0821 85.251C90.2995 85.1932 90.4776 85.107 90.6189 84.9907C90.7585 84.8743 90.8296 84.7278 90.8296 84.5503C90.8296 84.4365 90.791 84.3434 90.714 84.2702C90.6369 84.1978 90.5359 84.1383 90.4126 84.0926C90.2876 84.0469 90.1531 84.0107 90.0084 83.9832C89.8637 83.9556 89.725 83.9349 89.5914 83.922C89.4579 83.909 89.3457 83.897 89.2549 83.8875C88.951 83.8479 88.677 83.791 88.4295 83.7203C88.1821 83.6496 87.9723 83.5591 87.7976 83.4505C87.6229 83.3411 87.4902 83.2066 87.3969 83.0463C87.3036 82.886 87.2573 82.7024 87.2573 82.493C87.2573 82.2698 87.3104 82.0698 87.4174 81.8949C87.5236 81.719 87.6726 81.5708 87.8661 81.4501C88.0588 81.3303 88.2822 81.2372 88.5383 81.1735C88.7943 81.1097 89.0717 81.0769 89.3705 81.0769C89.6873 81.0769 89.9767 81.1088 90.2396 81.1735C90.5025 81.2372 90.7371 81.3312 90.9426 81.4562C91.1489 81.582 91.3202 81.7354 91.4555 81.9181L90.9666 82.4577C90.8398 82.3025 90.6926 82.1724 90.5256 82.0655C90.3578 81.9586 90.1754 81.8776 89.9785 81.8225C89.7815 81.7673 89.5717 81.7414 89.3508 81.7414C89.1059 81.7414 88.8867 81.7682 88.6924 81.8225C88.4972 81.8776 88.3439 81.9535 88.23 82.0517C88.117 82.1491 88.0605 82.2689 88.0605 82.4103C88.0605 82.5335 88.0956 82.6378 88.1658 82.7248C88.236 82.8119 88.3345 82.8834 88.4612 82.9394C88.5879 82.9972 88.7403 83.0437 88.9193 83.0799C89.0974 83.117 89.296 83.1489 89.5135 83.1765C89.7849 83.2083 90.047 83.2489 90.3013 83.2997C90.5547 83.3506 90.7808 83.4195 90.9803 83.5083C91.1789 83.5979 91.3373 83.7169 91.4555 83.8677C91.5736 84.0185 91.6327 84.2141 91.6327 84.4555C91.6327 84.7657 91.5402 85.0372 91.3544 85.2691C91.1686 85.5018 90.9092 85.6819 90.5761 85.8095C90.2439 85.937 89.8509 86.0008 89.3979 86.0008L89.3954 85.9999Z" fill="#B78C57"/>
<path d="M99.1886 85.9999C98.8486 85.9999 98.5353 85.9655 98.2476 85.8974C97.9607 85.8284 97.6978 85.7267 97.4607 85.5888C97.2226 85.4527 97.006 85.2794 96.8125 85.0691L97.274 84.4537C97.5686 84.7597 97.8682 84.9821 98.1739 85.1243C98.4796 85.2656 98.8195 85.3363 99.1963 85.3363C99.4317 85.3363 99.6578 85.3079 99.8753 85.251C100.093 85.1932 100.271 85.107 100.412 84.9907C100.552 84.8743 100.623 84.7278 100.623 84.5503C100.623 84.4365 100.584 84.3434 100.507 84.2702C100.43 84.1978 100.329 84.1383 100.206 84.0926C100.081 84.0469 99.9463 84.0107 99.8016 83.9832C99.6569 83.9556 99.5182 83.9349 99.3846 83.922C99.2511 83.909 99.1389 83.897 99.0481 83.8875C98.7442 83.8479 98.4702 83.791 98.2227 83.7203C97.9753 83.6496 97.7655 83.5591 97.5908 83.4505C97.4161 83.3411 97.2834 83.2066 97.1901 83.0463C97.0976 82.8869 97.0505 82.7024 97.0505 82.493C97.0505 82.2698 97.1036 82.0698 97.2106 81.8949C97.3168 81.719 97.4658 81.5708 97.6593 81.4501C97.852 81.3303 98.0755 81.2372 98.3315 81.1735C98.5875 81.1097 98.8649 81.0769 99.1637 81.0769C99.4805 81.0769 99.7699 81.1088 100.033 81.1735C100.296 81.2372 100.53 81.3312 100.736 81.4562C100.942 81.582 101.113 81.7354 101.249 81.9181L100.76 82.4577C100.633 82.3025 100.486 82.1724 100.319 82.0655C100.151 81.9586 99.9686 81.8776 99.7717 81.8225C99.5747 81.7673 99.3649 81.7414 99.144 81.7414C98.8992 81.7414 98.68 81.7682 98.4856 81.8225C98.2904 81.8776 98.1371 81.9535 98.0232 82.0517C97.9102 82.1491 97.8537 82.2689 97.8537 82.4103C97.8537 82.5335 97.8888 82.6378 97.959 82.7248C98.0292 82.8119 98.1277 82.8834 98.2544 82.9394C98.3811 82.9972 98.5335 83.0437 98.7125 83.0799C98.8906 83.117 99.0892 83.1489 99.3067 83.1765C99.5782 83.2083 99.8402 83.2489 100.094 83.2997C100.348 83.3506 100.574 83.4195 100.773 83.5083C100.972 83.5979 101.131 83.7169 101.249 83.8677C101.367 84.0185 101.426 84.2141 101.426 84.4555C101.426 84.7657 101.333 85.0372 101.148 85.2691C100.962 85.5018 100.702 85.6819 100.369 85.8095C100.037 85.937 99.6441 86.0008 99.1911 86.0008L99.1886 85.9999Z" fill="#B78C57"/>
<path d="M0 67.2078C0 65.8719 0.816852 65.0497 1.90599 65.0497C2.99513 65.0497 3.74434 65.8719 3.74434 66.9337C2.82559 66.9337 2.21252 67.4819 2.21252 68.4411C2.21252 70.3941 4.66308 71.7309 8.16938 71.7309C12.424 71.7309 15.3181 69.7089 15.3181 66.9682C15.3181 63.9525 11.9822 62.5485 8.20363 61.0402C4.79922 59.7043 0.612211 58.0246 0.612211 53.9824C0.612211 50.3505 4.01662 47.7459 8.6112 47.7459C12.8325 47.7459 16.0999 49.9385 16.0999 52.6456C16.0999 53.9134 15.3507 54.7357 14.2958 54.7357C13.2409 54.7357 12.3555 53.9134 12.3555 52.8516C13.4447 52.8516 14.1254 52.3379 14.1254 51.3787C14.1254 49.6308 11.9129 48.4319 8.95113 48.4319C5.07065 48.4319 2.31356 50.522 2.31356 53.1938C2.31356 56.2095 5.8875 57.7169 9.3253 59.0528C13.3077 60.5947 17.0186 62.034 17.0186 66.0425C17.0186 70.0511 13.4447 72.4152 8.5427 72.4152C3.64073 72.4152 0 70.052 0 67.2078Z" fill="#B78C57"/>
<path d="M39.7319 48.0887V51.9266C38.8466 50.0425 37.0767 48.7747 35.2726 48.7747H31.3921V69.9836C31.3921 70.8058 31.6987 71.6625 32.1071 72.0736H28.4989C28.9073 71.6625 29.1796 70.8058 29.1796 69.9836V48.7747H25.3334C23.5293 48.7747 21.7594 50.0425 20.8398 51.9266V48.0887H39.7319Z" fill="#B78C57"/>
<path d="M64.7583 69.9827C64.7583 70.805 65.0306 71.6617 65.439 72.0728H61.8651C62.2735 71.6617 62.5458 70.805 62.5458 69.9827V60.2522H47.4323V69.9827C47.4323 70.805 47.7046 71.6617 48.113 72.0728H44.5391C44.9475 71.6617 45.2198 70.805 45.2198 69.9827V50.1787C45.2198 49.3565 44.9475 48.4998 44.5391 48.0887H48.113C47.7046 48.4998 47.4323 49.3565 47.4323 50.1787V59.567H62.5458V50.1787C62.5458 49.3565 62.2735 48.4998 61.8651 48.0887H65.439C65.0306 48.4998 64.7583 49.3565 64.7583 50.1787V69.9827Z" fill="#B78C57"/>
<path d="M72.6221 69.9827V50.1787C72.6221 49.3565 72.3498 48.4998 71.9414 48.0887H75.5153C75.1069 48.4998 74.8346 49.3565 74.8346 50.1787V69.9827C74.8346 70.805 75.1069 71.6617 75.5153 72.0728H71.9414C72.3498 71.6617 72.6221 70.805 72.6221 69.9827Z" fill="#B78C57"/>
<path d="M102.316 72.0727H99.6611C98.7081 71.559 97.8913 70.7712 97.3125 69.8456L93.7043 63.9177C93.1939 63.061 92.3762 62.2732 91.4575 61.7931H84.8542V69.9818C84.8542 70.804 85.1265 71.6607 85.5349 72.0718H81.9609C82.3694 71.6607 82.6416 70.804 82.6416 69.9818V50.1777C82.6416 49.3555 82.3694 48.4988 81.9609 48.0877H91.7298C96.5632 48.0877 100.24 50.9999 100.24 54.8715C100.24 58.4344 97.244 61.2105 93.1254 61.7242C94.5896 62.1698 95.7121 62.9575 96.3252 63.9857L99.6954 69.4672C100.376 70.598 101.432 71.6598 102.316 72.0709V72.0727ZM84.8542 61.108H91.3556C95.3037 61.108 97.8913 58.6758 97.8913 54.9404C97.8913 51.2051 95.3046 48.7729 91.3556 48.7729H84.8542V61.108Z" fill="#B78C57"/>
<path d="M127 72.0727H124.345C123.392 71.559 122.575 70.7712 121.996 69.8456L118.388 63.9177C117.878 63.061 117.06 62.2732 116.141 61.7931H109.538V69.9818C109.538 70.804 109.81 71.6607 110.218 72.0718H106.645C107.053 71.6607 107.325 70.804 107.325 69.9818V50.1777C107.325 49.3555 107.053 48.4988 106.645 48.0877H116.413C121.247 48.0877 124.924 50.9999 124.924 54.8715C124.924 58.4344 121.928 61.2105 117.809 61.7242C119.273 62.1698 120.396 62.9575 121.009 63.9857L124.379 69.4672C125.06 70.598 126.115 71.6598 127 72.0709V72.0727ZM109.538 61.108H116.039C119.987 61.108 122.575 58.6758 122.575 54.9404C122.575 51.2051 119.988 48.7729 116.039 48.7729H109.538V61.108Z" fill="#B78C57"/>
<path d="M72.8791 2.66017C71.9364 2.14477 70.8978 1.82416 69.8695 1.50785C69.2992 1.33203 68.7281 1.15621 68.1578 0.981247C66.5892 0.498599 65.0069 0.368457 63.4117 0.0978295C61.7155 -0.190035 59.7427 0.196945 58.1373 0.74337C56.4231 1.32686 54.8476 2.26026 53.3492 3.28158C52.028 4.18223 50.7556 5.15615 49.5406 6.19729C49.0954 6.57909 48.6553 6.97211 48.2879 7.43062C47.8966 7.9193 47.5952 8.47348 47.2956 9.02422C46.6919 10.1343 46.0891 11.2435 45.4855 12.3536C44.8142 13.5878 44.0924 14.878 43.7661 16.257C43.4356 17.6533 43.499 19.2581 43.5632 20.6862C43.6994 23.6933 44.3552 26.677 45.5043 29.4557C45.7509 30.0521 46.0215 30.6417 46.382 31.176C46.8263 31.8345 47.3992 32.3947 47.8641 33.0385C48.3316 33.6875 48.6878 34.4192 49.2161 35.02C49.7033 35.5741 50.3198 35.9947 50.9449 36.3843C55.7081 39.3534 61.3987 40.7893 66.9899 40.4334C67.5765 40.3963 68.1681 40.3386 68.7264 40.1524C69.1417 40.0145 69.5304 39.8076 69.9166 39.6017C72.0263 38.4795 74.0342 37.341 75.9933 35.9732C76.5293 35.5991 77.0704 35.2199 77.5063 34.7312C77.8282 34.3701 78.0859 33.9573 78.3411 33.5462C78.9413 32.5809 79.5424 31.6156 80.1426 30.6503C80.6606 29.8168 81.1804 28.9817 81.6008 28.0948C83.5119 24.063 84.1592 18.6168 82.6677 14.3506C82.2002 13.0147 81.4629 11.7934 80.7317 10.5833C80.319 9.9016 79.9063 9.219 79.4944 8.53726C79.2453 8.12529 78.9944 7.71073 78.6793 7.34702C78.3762 6.99796 78.0192 6.70148 77.6638 6.40672C76.7648 5.6612 75.8649 4.91568 74.9658 4.17017C74.3759 3.68149 73.7833 3.19022 73.1257 2.79893C73.0444 2.75067 72.9622 2.70326 72.8791 2.65845V2.66017ZM81.9613 20.3475C81.9441 20.5474 81.9424 20.7465 81.9912 20.9404C82.0067 21.0016 82.0264 21.0611 82.0349 21.1232C82.0589 21.2981 81.9938 21.4731 81.987 21.6472C81.981 21.7842 81.981 21.923 81.9741 22.0609C81.9604 22.3436 81.9493 22.6581 81.7977 22.9072C81.7763 22.9426 81.7498 22.9753 81.7155 22.9977C81.6256 23.0563 81.504 23.0287 81.4124 22.9727C81.3208 22.9167 81.2455 22.8374 81.1521 22.7848C80.8927 22.6392 80.5314 22.821 80.2985 22.6633C80.1752 22.5789 80.1914 22.3237 80.1991 22.197C80.2616 21.2464 80.6033 20.2958 80.4175 19.3615C80.4004 19.2736 80.3781 19.1865 80.367 19.0969C80.3524 18.9762 80.3601 18.8539 80.3567 18.7323C80.3498 18.4755 80.3062 18.2212 80.295 17.9635C80.2831 17.6989 80.2625 17.4309 80.1632 17.1835C80.1469 17.1422 80.1272 17.1008 80.1169 17.0577C80.1041 17.006 80.1032 16.9517 80.1015 16.8974C80.0947 16.6457 80.075 16.3941 80.0296 16.1459C79.956 15.7373 79.8155 15.3435 79.676 14.9522C79.5612 14.6307 79.4765 14.2782 79.3181 13.9757C79.2384 13.8248 79.1348 13.6878 79.0518 13.5387C78.9405 13.3405 78.8668 13.1241 78.7795 12.9156C78.2829 11.727 77.3556 10.7867 76.5867 9.75509C76.4128 9.52152 76.2399 9.2733 75.9993 9.10351C75.7612 8.93545 75.5617 8.72429 75.3331 8.53899C74.9975 8.26836 74.6387 8.02876 74.28 7.79002C73.8587 7.50991 73.4374 7.22894 73.017 6.94884C72.862 6.84541 72.7062 6.74199 72.5367 6.6627C72.3697 6.58513 72.1924 6.53255 72.0161 6.48084C70.9552 6.16884 69.8943 5.85599 68.8334 5.54399C68.3231 5.39402 67.8102 5.24406 67.2828 5.16476C67.0225 5.12598 66.7587 5.10357 66.4959 5.10961C66.3991 5.11219 65.9821 5.20096 65.9162 5.0984C65.8494 4.99325 66.1662 4.83984 66.2339 4.7933C66.4685 4.63213 66.7065 4.47699 66.948 4.32703C67.0559 4.2598 67.1723 4.19947 67.2699 4.12018C67.371 4.0383 67.4489 3.94091 67.5816 3.9073C67.6313 3.89437 67.6835 3.89178 67.7349 3.8892C68.2751 3.85472 68.8034 3.71855 69.3343 3.60737C69.67 3.53755 70.0099 3.47722 70.3524 3.48412C70.5947 3.48929 70.8353 3.52807 71.0751 3.56686C71.4038 3.62029 71.7755 3.62633 72.07 3.79094C72.3577 3.95039 72.6043 4.17792 72.9065 4.31151C73.2054 4.44338 73.5393 4.5175 73.7876 4.73124C73.9383 4.86139 74.0453 5.03376 74.1832 5.17683C74.5668 5.57502 75.161 5.72067 75.5258 6.13609C75.614 6.23693 75.6868 6.3507 75.7724 6.45326C76.0704 6.8118 76.5096 7.01692 76.8658 7.31686C77.067 7.48578 77.1954 7.72021 77.3864 7.89086C77.5748 8.05979 77.734 8.17959 77.877 8.40281C78.1887 8.89149 78.4995 9.37931 78.8112 9.86799C78.9644 10.1076 79.1143 10.3498 79.2701 10.5877C79.4045 10.7936 79.5604 10.9712 79.6785 11.1935C79.7719 11.3685 79.8018 11.5719 79.9072 11.7451C79.9996 11.8968 80.1272 12.0244 80.2154 12.1787C80.3635 12.4355 80.3952 12.7415 80.4885 13.0233C80.5733 13.2793 80.7095 13.5146 80.8148 13.7619C80.9997 14.1998 81.0862 14.6703 81.2241 15.1237C81.3593 15.5667 81.6017 15.9347 81.6667 16.3975C81.6873 16.5415 81.6839 16.688 81.7044 16.8319C81.7309 17.0129 81.796 17.1861 81.8346 17.3645C81.8816 17.5826 81.8894 17.805 81.8894 18.0273C81.8894 18.2066 81.9442 18.3703 81.9536 18.5505C81.9596 18.6703 81.9536 18.7901 81.963 18.9099C81.975 19.0728 82.0152 19.2331 82.0289 19.396C82.0563 19.7114 81.9895 20.0312 81.9621 20.3466L81.9613 20.3475ZM62.5931 29.5764C62.2524 29.6522 61.9253 29.5583 61.4655 29.2523C60.7822 28.7972 59.9388 28.3999 59.3625 27.819C58.7657 27.2166 58.1595 26.6012 57.7717 25.8453C57.6364 25.5816 57.5293 25.3032 57.3941 25.0395C57.0687 24.4043 56.5832 23.8605 56.2869 23.2106C56.1534 22.9176 56.06 22.6073 55.9804 22.2944C55.4487 20.2139 55.4923 17.9868 56.1054 15.9287C56.1928 15.6365 56.2921 15.3452 56.4505 15.0858C56.6217 14.8056 56.8581 14.5712 57.0439 14.3006C57.1911 14.086 57.2648 13.8369 57.3932 13.6197C57.5293 13.3887 57.7408 13.2301 57.942 13.05C59.1708 11.9503 60.4234 10.8341 61.9133 10.1343C62.7361 9.74819 63.6206 9.49566 64.5222 9.39052C65.0976 9.32329 65.6782 9.31553 66.2578 9.30691C67.1826 9.29399 68.1253 9.2845 69.0089 9.55944C69.9397 9.84989 70.7463 10.4394 71.5186 11.0367C72.3217 11.6581 73.1103 12.3002 73.857 12.9888C74.2046 13.3094 74.5445 13.6421 74.8279 14.0222C75.334 14.7022 75.6405 15.5098 75.8948 16.32C76.2553 17.4705 76.5165 18.6694 76.5344 19.8803C76.5439 20.4966 76.4882 21.1154 76.3452 21.7153C76.2878 21.9557 76.2313 22.3703 76.0763 22.5659C75.8982 22.79 75.56 22.7607 75.2698 22.8133C71.3028 23.5321 68.3085 25.679 65.4136 27.7552C64.744 28.2353 64.0736 28.7154 63.3912 29.1765C63.0846 29.3842 62.8363 29.5221 62.5949 29.5755L62.5931 29.5764ZM59.4276 29.7126C59.4156 29.7841 59.3737 29.8565 59.2889 29.928C59.1194 30.0702 58.8745 30.0659 58.6553 30.0418C58.0842 29.978 57.5268 29.8306 56.9719 29.6824C56.5472 29.5695 56.1217 29.4566 55.703 29.3221C54.4469 28.9196 53.2533 28.3215 52.1719 27.563C51.3267 26.9709 50.5493 26.2806 49.8609 25.5092C49.1476 24.7094 48.6373 23.8191 48.0619 22.9253C47.9677 22.7788 47.8735 22.6323 47.8042 22.4728C47.7562 22.3617 47.7203 22.2462 47.6843 22.1307C47.0995 20.238 46.5138 18.3419 46.1105 16.401C46.0326 16.0243 45.9915 15.6675 46.0078 15.2831C46.0198 15.0039 45.893 14.7255 45.9581 14.4428C46.0095 14.2213 46.2912 14.2273 46.4787 14.1911C46.7912 14.1299 47.1055 14.0782 47.4231 14.0575C47.8119 14.0317 48.2015 14.0524 48.5911 14.0575C50.4559 14.0868 52.3157 13.7973 54.1266 13.3456C54.3047 13.3008 54.4837 13.2551 54.6669 13.2353C54.8741 13.2129 55.0831 13.2258 55.2903 13.2069C55.59 13.1784 55.852 13.0061 56.1491 12.9699C56.5438 12.9216 56.1388 13.356 56.0583 13.4818C55.7698 13.9308 55.5206 14.4118 55.2535 14.8746C55.1499 15.0539 55.0454 15.2349 54.9795 15.4322C54.9375 15.5589 54.911 15.6899 54.8853 15.8201C54.6746 16.8922 54.4631 17.9644 54.2525 19.0366C54.2302 19.1486 54.208 19.2624 54.22 19.3753C54.2294 19.4684 54.2611 19.5571 54.2799 19.6494C54.3005 19.7485 54.3065 19.8502 54.3133 19.951C54.345 20.4828 54.2859 21.1223 54.4888 21.6161C54.714 22.1626 54.7902 22.8116 54.9255 23.3881C54.982 23.6278 55.0385 23.8682 55.1267 24.0975C55.2458 24.4043 55.4204 24.6861 55.5934 24.9654C55.9196 25.4903 56.245 26.0151 56.5712 26.5409C56.8503 26.9908 57.1312 27.4424 57.478 27.8406C57.8247 28.2388 58.2272 28.5344 58.6596 28.8283C58.8197 28.9369 58.9627 29.0843 59.1134 29.2101C59.2555 29.3282 59.461 29.504 59.4268 29.7143L59.4276 29.7126ZM65.9205 7.99859C65.6996 8.00377 65.4787 8.01928 65.2578 8.03479C65.0317 8.05031 64.8048 8.06582 64.5788 8.08133C64.089 8.11495 63.6241 8.16494 63.1625 8.32783C63.0589 8.36489 62.4938 8.56226 62.6608 8.2675C62.761 8.09168 62.9853 7.9848 63.1163 7.83312C63.255 7.67281 63.3929 7.51164 63.5307 7.35047C63.7285 7.11863 63.9272 6.88678 64.125 6.6558C64.2234 6.54117 64.327 6.41103 64.4615 6.33691C64.6627 6.22487 65.0411 6.26624 65.2646 6.26193C65.6054 6.25589 65.9453 6.25245 66.2861 6.2602C66.954 6.27485 67.6244 6.33174 68.2769 6.48601C68.5286 6.54548 68.7769 6.6196 69.0252 6.69372C69.4345 6.81611 69.8438 6.93763 70.2522 7.06002C70.6521 7.17896 71.0528 7.29876 71.4295 7.47802C71.8371 7.67108 72.2121 7.93223 72.6334 8.0934C72.7969 8.15632 72.9665 8.20372 73.124 8.28043C73.2439 8.33903 73.3552 8.41402 73.464 8.49158C73.7337 8.68464 73.9751 8.9139 74.2209 9.1354C74.4521 9.34484 74.7355 9.44654 74.9615 9.67235C75.4342 10.1429 75.763 10.7402 76.2185 11.2272C76.4514 11.4762 76.7177 11.6977 76.9052 11.9839C76.9951 12.1218 77.0644 12.2709 77.1389 12.4174C77.3265 12.7871 77.5465 13.1388 77.7717 13.4861C78.068 13.9438 78.3899 14.3954 78.5834 14.9091C78.6793 15.165 78.6922 15.4159 78.7487 15.6779C78.8086 15.9597 78.8694 16.2476 78.9413 16.5277C79.0244 16.85 79.128 17.1689 79.1802 17.4981C79.229 17.8058 79.2316 18.1187 79.2342 18.4298C79.2401 19.1021 79.2461 19.7743 79.2521 20.4474C79.2547 20.725 79.2564 21.0051 79.1991 21.2757C79.14 21.5558 79.0167 21.8256 79.0098 22.1126C79.0073 22.2195 79.0381 22.3367 79.0021 22.4401C78.9533 22.5823 78.7872 22.5478 78.669 22.5487C78.6348 22.5487 78.6005 22.5487 78.5663 22.5435C78.5312 22.5383 78.4969 22.5271 78.4618 22.522C78.4182 22.5159 78.3745 22.5177 78.3308 22.5194C78.2144 22.5246 78.0971 22.528 77.9806 22.5323C77.8573 22.5366 77.7332 22.5401 77.6099 22.5444C77.526 22.547 77.3855 22.5866 77.329 22.5065C77.3085 22.4772 77.2991 22.4401 77.2939 22.4039C77.2742 22.2677 77.3136 22.1393 77.3393 22.0074C77.3864 21.7696 77.3967 21.5584 77.4069 21.3197C77.4181 21.068 77.4814 20.8224 77.5165 20.5733C77.5688 20.1958 77.5919 19.77 77.5516 19.3917C77.508 18.9797 77.4061 18.5737 77.3967 18.1583C77.3924 17.9808 77.4069 17.8032 77.4018 17.6265C77.395 17.418 77.3616 17.212 77.3282 17.006C77.3076 16.881 77.2871 16.7543 77.2485 16.6337C77.1826 16.4251 77.067 16.2372 76.9814 16.0364C76.8958 15.8356 76.8487 15.6399 76.7947 15.44C76.6749 14.9961 76.5361 14.5523 76.3058 14.1523C76.233 14.0257 76.1508 13.9041 76.0695 13.7835C75.7433 13.3 75.4179 12.8164 75.0917 12.3321C75.0018 12.1985 74.911 12.064 74.8031 11.9442C74.6028 11.7227 74.3485 11.5573 74.1601 11.3246C73.9914 11.116 73.8022 10.8997 73.6001 10.7221C73.4759 10.6135 73.3372 10.5222 73.1994 10.4317C72.9254 10.2515 72.6505 10.0714 72.3765 9.89126C71.9347 9.60081 71.48 9.28364 70.9817 9.09834C70.444 8.89839 69.9063 8.68637 69.3463 8.53899C68.7692 8.38816 68.1827 8.2787 67.5961 8.17183C67.1732 8.09512 66.7493 8.01842 66.3195 8.00032C66.1868 7.99429 66.0541 7.99429 65.9213 7.99773L65.9205 7.99859ZM67.752 2.37834C67.7503 2.80324 67.1167 3.04025 66.811 3.22814C66.3306 3.52463 65.8494 3.82025 65.3691 4.11673C65.0172 4.33392 64.6558 4.55887 64.4075 4.89069C64.2054 5.16132 64.0813 5.49745 63.8193 5.71033C63.6977 5.80944 63.553 5.87495 63.4203 5.95941C63.2268 6.08352 63.0615 6.24641 62.9014 6.41275C62.4638 6.86868 62.0588 7.35736 61.6907 7.8719C61.5922 8.0098 61.4963 8.14942 61.3884 8.2787C61.2086 8.49503 60.9963 8.6812 60.7848 8.8665C60.4491 9.16126 60.1135 9.45602 59.7778 9.74992C59.4619 10.0274 59.1237 10.3989 58.7461 10.5885C58.4352 10.7445 58.0705 10.7781 57.7605 10.9548C57.466 11.1229 57.1868 11.3168 56.8769 11.4547C56.6089 11.5736 56.3229 11.6478 56.0386 11.7202C54.9726 11.9908 53.9015 12.2399 52.8252 12.4648C52.6008 12.5122 52.3756 12.5579 52.147 12.5837C51.9586 12.6044 51.7686 12.6113 51.5802 12.6329C50.7445 12.7277 49.9593 13.1035 49.1228 13.1991C48.3898 13.2827 47.519 13.1939 46.8161 12.9604C46.6251 12.8975 46.608 12.938 46.596 12.7328C46.5866 12.5846 46.6722 12.4028 46.7262 12.2692C46.8435 11.9753 47.0087 11.7029 47.0995 11.3987C47.1877 11.1013 47.2091 10.7661 47.412 10.5342C47.7365 10.1636 48.3282 10.2593 48.7666 10.2593C50.3446 10.2593 51.9338 10.0283 53.4331 9.52755C55.4641 8.85012 57.2982 7.64437 58.633 5.94993C59.4482 4.91568 60.0621 3.73406 60.4979 2.49124C60.5544 2.33007 60.5861 2.12667 60.6666 1.97757C60.7719 1.78365 60.8456 1.79054 61.0802 1.73883C61.5297 1.63885 61.9852 1.56904 62.4442 1.5294C63.3612 1.45097 64.2894 1.49406 65.1944 1.65954C65.4085 1.69918 65.6208 1.74486 65.834 1.79054C66.0626 1.83967 66.2912 1.88966 66.5207 1.93878C66.93 2.02756 67.3393 2.11547 67.7486 2.20424C67.7494 2.26974 67.7511 2.32663 67.7511 2.37661L67.752 2.37834ZM59.4037 2.05255C59.4336 2.09909 59.4413 2.18097 59.4173 2.30939C59.3608 2.61794 59.092 2.97992 58.9439 3.25486C58.7846 3.54876 58.6185 3.84007 58.4532 4.13052C58.294 4.40977 58.1347 4.68901 57.9523 4.95361C57.0755 6.22228 55.7244 7.0626 54.4135 7.86759C54.2713 7.95464 54.1292 8.04169 53.9785 8.1115C53.7782 8.20372 53.5641 8.26491 53.3518 8.32438C53.0152 8.41919 52.6787 8.51399 52.3431 8.60966C51.5639 8.82944 50.7779 9.05008 49.9713 9.14143C49.58 9.18625 49.1913 9.19142 48.7983 9.16729C48.3676 9.14057 48.5063 9.00526 48.7272 8.74239C48.9164 8.51658 49.1134 8.29852 49.3189 8.08737C49.729 7.66505 50.17 7.27376 50.6375 6.91695C50.944 6.68252 51.2651 6.46016 51.5177 6.16712C51.7454 5.90253 51.9141 5.58191 52.1898 5.36903C52.4407 5.17511 52.7558 5.08978 53.0332 4.93809C53.2695 4.80881 53.4759 4.63213 53.6883 4.46665C54.8159 3.58496 56.1465 2.967 57.5448 2.67568C57.9215 2.59725 58.3119 2.53865 58.6425 2.34128C58.8094 2.2413 59.2855 1.86466 59.4054 2.05514L59.4037 2.05255ZM45.0274 17.168C45.0317 17.168 45.036 17.1689 45.0402 17.1706C45.0462 17.1732 45.0505 17.1784 45.0548 17.1827C45.1721 17.3016 45.1678 17.4369 45.1866 17.6016C45.2055 17.7619 45.2192 17.923 45.2492 18.0816C45.4743 19.2512 45.8691 20.3552 46.2039 21.4955C46.3169 21.8799 46.4273 22.2703 46.6234 22.6194C46.8366 22.9994 47.1474 23.3244 47.3058 23.7303C47.3683 23.8906 47.4052 24.0595 47.4762 24.2164C47.5815 24.45 47.7545 24.6448 47.9232 24.8378C48.3231 25.2963 48.7084 25.7669 49.0783 26.2496C49.2949 26.5323 49.4858 26.8348 49.7222 27.1011C49.9585 27.3674 50.2582 27.5656 50.5262 27.7992C51.1178 28.312 51.7531 28.7731 52.4244 29.1756C52.6685 29.3213 52.9168 29.46 53.1779 29.5721C53.5521 29.7332 53.9477 29.8384 54.3416 29.9427C55.0462 30.1297 55.7518 30.3167 56.4565 30.5037C57.0987 30.6744 57.746 30.8442 58.4087 30.9106C58.7426 30.9442 59.0774 30.9476 59.4122 30.9166C59.5629 30.9019 60.0946 30.9493 59.8763 31.2294C59.7658 31.3708 59.3463 31.4225 59.1793 31.4871C58.7315 31.6595 58.2751 31.8086 57.811 31.9293C56.8384 32.1835 55.8357 32.3128 54.8305 32.3128C53.1086 32.3128 51.4732 31.4639 50.0878 30.5029C48.8137 29.6195 47.656 28.5637 46.5977 27.4303C46.3751 27.1924 46.1576 26.9503 45.9453 26.7038C45.792 26.5254 45.774 26.3582 45.7124 26.1255C45.5942 25.6764 45.4752 25.2265 45.357 24.7775C45.2132 24.2311 45.0685 23.6795 45.0437 23.1149C45.0325 22.8555 45.0462 22.5952 45.0188 22.3367C44.9957 22.116 44.9418 21.8997 44.9092 21.6799C44.8596 21.3472 44.8587 21.0103 44.857 20.6741C44.8553 20.307 44.8536 19.9407 44.8527 19.5735C44.851 19.1452 44.8493 18.716 44.8716 18.2885C44.8818 18.0894 44.8844 17.8894 44.8998 17.6903C44.9075 17.5895 44.9195 17.4895 44.9341 17.3887C44.9443 17.3137 44.9186 17.2128 45.0017 17.1732C45.0094 17.1698 45.0188 17.1663 45.0274 17.1672V17.168ZM47.6389 30.1125C47.6449 30.1064 47.6535 30.103 47.6637 30.1013C47.8633 30.0668 48.1732 30.4503 48.3256 30.5736C49.9319 31.8698 51.8508 32.8205 53.8372 33.366C54.16 33.4548 54.4897 33.5332 54.8245 33.535C55.1901 33.5367 55.5497 33.4453 55.9042 33.3557C56.8152 33.1238 57.7263 32.8929 58.6373 32.661C59.1767 32.524 59.7187 32.3861 60.2351 32.1775C60.557 32.0474 60.8678 31.8905 61.1786 31.7345C61.5811 31.532 61.9826 31.3286 62.3851 31.126C63.0521 30.789 63.72 30.452 64.3681 30.0788C65.4401 29.4618 66.4299 28.7361 67.4121 27.9811C67.8556 27.6406 68.3214 27.3321 68.7872 27.0235C69.5758 26.5004 70.3644 25.9772 71.1538 25.4549C71.4586 25.2524 71.766 25.0498 72.1008 24.9042C72.4014 24.774 72.7199 24.693 73.0367 24.612C73.6224 24.462 74.2089 24.3129 74.7946 24.163C75.7167 23.9277 76.6432 23.6907 77.5902 23.5976C78.4079 23.5166 79.2316 23.5528 80.027 23.7674C80.4509 23.882 81.4561 23.7794 81.6565 24.2966C81.6898 24.3836 81.6684 24.481 81.6453 24.5715C81.5734 24.8611 81.5023 25.1507 81.4304 25.4403C81.4099 25.5247 81.3885 25.6101 81.3542 25.6902C81.3037 25.8074 81.2258 25.9108 81.183 26.0306C81.1461 26.1332 81.1359 26.2461 81.0776 26.3383C81.0117 26.4435 80.8884 26.4659 80.7745 26.4564C80.5151 26.4331 80.2651 26.3582 80.0099 26.3125C79.7556 26.2659 79.473 26.2909 79.2136 26.2901C78.6571 26.2883 78.1005 26.297 77.5439 26.3151C77.2297 26.3254 76.9146 26.3392 76.6029 26.3814C76.2476 26.4306 75.8991 26.5167 75.5506 26.6029C74.4495 26.8761 73.3449 27.1502 72.2841 27.5536C71.2617 27.9423 70.1563 28.4585 69.3643 29.2351C68.8582 29.7307 68.2075 30.0323 67.6818 30.5003C67.4532 30.7037 67.2785 30.9571 67.0482 31.1648C66.8127 31.3768 66.561 31.5707 66.3529 31.8112C66.1688 32.0232 66.0241 32.2654 65.8597 32.4938C65.3956 33.1376 64.786 33.6565 64.1455 34.115C63.523 34.5606 62.8868 35.0656 62.189 35.3802C61.897 35.5121 61.5896 35.6052 61.2814 35.6922C60.7128 35.8534 60.1374 35.9964 59.5501 36.0628C58.7991 36.1473 58.0405 36.1033 57.287 36.0594C57.0036 36.043 56.7211 36.0266 56.4376 36.0102C56.0806 35.9896 55.7218 35.9689 55.3691 35.9077C54.8399 35.8163 54.3287 35.6198 53.7936 35.5853C52.9433 35.531 52.0571 35.0122 51.3755 34.527C50.3421 33.7918 49.5389 32.7799 48.7512 31.7828C48.6159 31.6113 47.4163 30.321 47.6381 30.115L47.6389 30.1125ZM55.8451 37.3798C55.9753 37.247 56.6149 37.4427 56.8058 37.4565C57.1851 37.4832 57.5662 37.4728 57.9446 37.4349C60.5005 37.1815 62.993 36.2947 65.1387 34.8734C65.4761 34.6493 65.81 34.4089 66.0669 34.0943C66.3341 33.7668 66.5062 33.3729 66.751 33.0282C67.436 32.0603 68.5979 31.5802 69.5338 30.8563C70.1315 30.3943 70.6435 29.8272 71.2463 29.3713C72.5435 28.3913 74.1712 27.9897 75.7493 27.6105C76.5824 27.4105 77.4258 27.2174 78.2837 27.1726C78.6682 27.1528 79.0535 27.1769 79.4337 27.2424C79.7436 27.2959 80.0613 27.2674 80.3259 27.4476C80.6487 27.6673 80.5613 27.8699 80.4021 28.1741C80.1923 28.5732 79.9491 28.9584 79.7231 29.3497C79.5484 29.6522 79.3301 30.0909 79.0038 30.2573C78.6742 30.4253 78.2418 30.3555 77.8856 30.3495C77.5191 30.3434 77.1715 30.3314 76.8007 30.3779C75.9265 30.4865 75.0728 30.7192 74.2243 30.9511C74.0642 30.995 73.9041 31.0381 73.7499 31.0993C73.5924 31.1622 73.4426 31.2424 73.2936 31.3234C72.1402 31.95 71.01 32.6196 69.9054 33.329C69.7564 33.4246 69.6075 33.5212 69.4747 33.6375C69.2538 33.8306 69.0817 34.0719 68.9113 34.3115C68.1193 35.425 67.3127 36.561 66.8367 37.8546C66.7545 38.0787 66.7425 38.3226 66.668 38.5493C66.5798 38.8208 66.3323 38.8415 66.0729 38.9061C65.4598 39.0587 64.8236 39.0716 64.196 39.0845C63.6746 39.0949 63.1523 39.1061 62.6308 39.1164C62.0023 39.1293 61.3636 39.1406 60.7574 38.9742C60.539 38.9139 60.3267 38.8311 60.1032 38.7906C59.9028 38.7536 59.6973 38.7519 59.4953 38.7286C59.0201 38.6743 58.5662 38.5045 58.1193 38.3321C57.7271 38.1813 57.3358 38.027 56.9462 37.8702C56.745 37.7891 56.5447 37.7073 56.3443 37.6254C56.1979 37.5651 55.9393 37.5116 55.846 37.3798H55.8451ZM67.9344 38.4666C67.776 38.2925 67.9815 37.9607 68.0559 37.7934C68.1844 37.5073 68.1955 37.2332 68.3873 36.9635C68.6057 36.6558 68.824 36.349 69.0415 36.0413C69.2667 35.7241 69.4953 35.4026 69.7958 35.1578C70.1323 34.8838 70.5536 34.7088 70.8233 34.3684C70.9672 34.1865 71.0588 33.9676 71.2078 33.7901C71.3653 33.6022 71.5785 33.4712 71.7874 33.3428C72.0683 33.1712 72.3483 32.9997 72.6291 32.8291C72.8278 32.7076 73.0264 32.586 73.2388 32.493C73.428 32.4093 73.6266 32.349 73.8253 32.2913C74.6456 32.0534 75.4804 31.8655 76.3229 31.7285C76.6791 31.6707 77.0079 31.6138 77.3496 31.5121C77.5739 31.4449 77.9917 31.3742 78.0397 31.7C78.0774 31.9586 77.865 32.1491 77.7306 32.3378C77.5628 32.5731 77.4172 32.8282 77.2622 33.073C77.1706 33.2169 77.079 33.3609 76.9685 33.4901C76.8393 33.6418 76.686 33.7702 76.5319 33.8969C75.6482 34.6226 74.7209 35.2923 73.7945 35.962C73.5881 36.1111 73.3826 36.2602 73.1651 36.3912C72.5289 36.7747 71.8029 37.0005 71.1992 37.4349C70.7985 37.7228 70.4363 38.108 69.9542 38.2071C69.7838 38.2425 69.6075 38.2382 69.4336 38.2339C69.1006 38.2261 68.9362 38.2701 68.6356 38.3873C68.4738 38.4511 68.1279 38.6139 67.9609 38.4924C67.9506 38.4847 67.9421 38.4769 67.9335 38.4683L67.9344 38.4666Z" fill="#B78C57"/>
</g>
<defs>
<clipPath id="clip0_0_118">
<rect width="127" height="86" fill="white"/>
</clipPath>
</defs>
</svg>
