<svg width="216" height="71" viewBox="0 0 216 71" fill="none" xmlns="http://www.w3.org/2000/svg">
<path d="M50.5196 5.3809C48.8979 4.49692 47.1112 3.94703 45.3422 3.40452C44.3612 3.10296 43.3787 2.8014 42.3977 2.50133C39.6993 1.67352 36.9773 1.45031 34.2332 0.98615C31.3152 0.492424 27.9215 1.15615 25.1597 2.09334C22.2109 3.09409 19.5007 4.69501 16.923 6.4467C14.6502 7.99144 12.4614 9.66183 10.3713 11.4475C9.60535 12.1024 8.84825 12.7764 8.21636 13.5629C7.54322 14.401 7.02473 15.3515 6.5092 16.2961C5.47077 18.2 4.4338 20.1025 3.39537 22.0065C2.24057 24.1233 0.998881 26.3362 0.437685 28.7013C-0.130875 31.096 -0.0218801 33.8485 0.0885915 36.2979C0.322791 41.4554 1.45108 46.573 3.42778 51.3388C3.85199 52.3617 4.31745 53.3728 4.93756 54.2893C5.70202 55.4187 6.68743 56.3795 7.48724 57.4837C8.29148 58.5969 8.90422 59.8519 9.81303 60.8822C10.6511 61.8327 11.7117 62.554 12.7869 63.2222C20.981 68.3147 30.7702 70.7774 40.3886 70.1669C41.3976 70.1033 42.4154 70.0043 43.3758 69.685C44.0902 69.4485 44.7589 69.0937 45.4232 68.7404C49.0525 66.8158 52.5066 64.863 55.8767 62.5171C56.7988 61.8755 57.7297 61.2251 58.4794 60.387C59.0333 59.7676 59.4766 59.0595 59.9156 58.3544C60.9481 56.6988 61.9821 55.0432 63.0147 53.3876C63.9058 51.9582 64.7999 50.5258 65.5231 49.0047C68.8108 42.0896 69.9243 32.7487 67.3584 25.4315C66.5542 23.1402 65.286 21.0456 64.0281 18.9702C63.3181 17.8009 62.6081 16.6302 61.8996 15.4609C61.471 14.7543 61.0394 14.0433 60.4974 13.4195C59.976 12.8208 59.3617 12.3123 58.7505 11.8067C57.2039 10.5281 55.6558 9.2494 54.1092 7.97074C53.0943 7.13259 52.075 6.29001 50.9438 5.61889C50.8039 5.53611 50.6625 5.45481 50.5196 5.37794V5.3809ZM66.1432 35.7169C66.1138 36.0599 66.1108 36.4014 66.1948 36.734C66.2213 36.8389 66.2552 36.9409 66.2699 37.0473C66.3111 37.3474 66.1992 37.6475 66.1874 37.9461C66.1771 38.1811 66.1771 38.4191 66.1653 38.6557C66.1418 39.1405 66.1226 39.6801 65.8619 40.1073C65.8251 40.1679 65.7794 40.224 65.7205 40.2625C65.5658 40.363 65.3567 40.3157 65.1991 40.2196C65.0415 40.1235 64.9118 39.9875 64.7513 39.8974C64.305 39.6475 63.6834 39.9594 63.2827 39.6889C63.0706 39.5441 63.0986 39.1065 63.1119 38.8892C63.2194 37.2587 63.8071 35.6283 63.4875 34.0259C63.458 33.8751 63.4197 33.7258 63.4006 33.5721C63.3755 33.3651 63.3888 33.1552 63.3829 32.9468C63.3711 32.5063 63.296 32.0702 63.2769 31.6282C63.2562 31.1744 63.2209 30.7147 63.05 30.2904C63.022 30.2194 62.9882 30.1485 62.9705 30.0746C62.9484 29.9859 62.9469 29.8928 62.944 29.7996C62.9322 29.368 62.8983 28.9363 62.8202 28.5106C62.6936 27.8099 62.452 27.1344 62.2119 26.4633C62.0145 25.9119 61.8687 25.3073 61.5962 24.7885C61.4592 24.5298 61.281 24.2947 61.1381 24.039C60.9466 23.699 60.82 23.328 60.6697 22.9703C59.8154 20.9318 58.2202 19.319 56.8975 17.5496C56.5985 17.149 56.3009 16.7233 55.8871 16.4321C55.4776 16.1438 55.1344 15.7817 54.7411 15.4638C54.1637 14.9997 53.5465 14.5887 52.9294 14.1793C52.2047 13.6988 51.48 13.2169 50.7567 12.7365C50.4901 12.5591 50.2221 12.3818 49.9304 12.2458C49.6432 12.1127 49.3383 12.0225 49.0349 11.9339C47.2099 11.3987 45.3849 10.8621 43.5599 10.327C42.682 10.0698 41.7997 9.81261 40.8924 9.67661C40.4446 9.61009 39.9909 9.57166 39.5387 9.582C39.3723 9.58644 38.655 9.7387 38.5415 9.56279C38.4266 9.38244 38.9716 9.11932 39.088 9.0395C39.4916 8.76307 39.9011 8.49699 40.3164 8.23978C40.502 8.12448 40.7024 8.021 40.8703 7.88501C41.0441 7.74458 41.1781 7.57754 41.4064 7.51989C41.4919 7.49771 41.5817 7.49328 41.6701 7.48884C42.5995 7.42971 43.5083 7.19616 44.4216 7.00547C44.999 6.88573 45.5837 6.78225 46.1729 6.79408C46.5898 6.80295 47.0037 6.86947 47.4161 6.93599C47.9817 7.02764 48.621 7.03799 49.1277 7.32033C49.6226 7.5938 50.0468 7.98405 50.5667 8.21317C51.0808 8.43934 51.6552 8.56647 52.0824 8.93307C52.3416 9.15628 52.5258 9.45192 52.7629 9.6973C53.4228 10.3802 54.445 10.6301 55.0725 11.3426C55.2242 11.5155 55.3494 11.7106 55.4967 11.8865C56.0093 12.5015 56.7649 12.8533 57.3777 13.3677C57.7238 13.6575 57.9448 14.0595 58.2732 14.3522C58.5973 14.642 58.8713 14.8474 59.1172 15.2303C59.6534 16.0684 60.1881 16.9051 60.7242 17.7433C60.9879 18.1542 61.2457 18.5696 61.5137 18.9776C61.745 19.3309 62.0131 19.6354 62.2163 20.0168C62.3769 20.3168 62.4284 20.6657 62.6096 20.9628C62.7687 21.223 62.9882 21.4418 63.1399 21.7064C63.3947 22.1469 63.4492 22.6716 63.6097 23.155C63.7556 23.5941 63.9898 23.9976 64.1709 24.4219C64.4891 25.1728 64.6379 25.9799 64.875 26.7575C65.1077 27.5173 65.5246 28.1485 65.6365 28.9423C65.6719 29.1891 65.666 29.4404 65.7013 29.6873C65.747 29.9977 65.8589 30.2948 65.9252 30.6008C66.0062 30.9748 66.0195 31.3562 66.0195 31.7376C66.0195 32.045 66.1138 32.3259 66.13 32.6349C66.1403 32.8403 66.13 33.0458 66.1462 33.2513C66.1668 33.5307 66.236 33.8056 66.2596 34.085C66.3067 34.626 66.1918 35.1744 66.1447 35.7155L66.1432 35.7169ZM32.825 51.5457C32.2388 51.6758 31.6761 51.5147 30.8851 50.9899C29.7097 50.2094 28.2588 49.528 27.2675 48.5316C26.2409 47.4984 25.198 46.4429 24.5308 45.1465C24.2981 44.6942 24.1139 44.2167 23.8812 43.7644C23.3215 42.6749 22.4863 41.7422 21.9767 40.6276C21.7469 40.125 21.5864 39.5928 21.4494 39.0562C20.5347 35.4878 20.6098 31.6681 21.6644 28.1381C21.8147 27.637 21.9855 27.1374 22.258 26.6924C22.5526 26.212 22.9592 25.8099 23.2788 25.3458C23.5321 24.9777 23.6588 24.5505 23.8797 24.178C24.1139 23.7818 24.4778 23.5098 24.8239 23.2009C26.9376 21.3146 29.0925 19.4003 31.6555 18.2C33.071 17.5378 34.5925 17.1047 36.1436 16.9243C37.1334 16.809 38.1321 16.7957 39.1292 16.7809C40.72 16.7588 42.3418 16.7425 43.8618 17.2141C45.4629 17.7122 46.8505 18.7233 48.1791 19.7477C49.5607 20.8135 50.9173 21.9148 52.2017 23.0959C52.7997 23.6458 53.3845 24.2164 53.872 24.8683C54.7426 26.0346 55.2699 27.4197 55.7073 28.8092C56.3275 30.7826 56.7767 32.8389 56.8076 34.9158C56.8238 35.9727 56.7281 37.034 56.4821 38.0629C56.3834 38.4753 56.2862 39.1863 56.0196 39.5219C55.7132 39.9062 55.1314 39.856 54.6321 39.9461C47.8079 41.179 42.657 44.8612 37.6769 48.4223C36.5251 49.2456 35.3717 50.069 34.1978 50.8598C33.6705 51.2161 33.2433 51.4526 32.8279 51.5443L32.825 51.5457ZM27.3795 51.7793C27.3589 51.902 27.2867 52.0262 27.1409 52.1488C26.8492 52.3928 26.428 52.3854 26.0509 52.344C25.0684 52.2346 24.1095 51.9818 23.1551 51.7276C22.4245 51.5339 21.6924 51.3403 20.9721 51.1097C18.8113 50.4193 16.758 49.3934 14.8977 48.0926C13.4439 47.0771 12.1064 45.893 10.9222 44.57C9.6952 43.1982 8.81732 41.6712 7.82749 40.1383C7.66547 39.887 7.50344 39.6357 7.38413 39.3622C7.30165 39.1716 7.23979 38.9735 7.17793 38.7754C6.1719 35.5292 5.1644 32.2771 4.47063 28.9482C4.3366 28.3022 4.26589 27.6902 4.29388 27.0309C4.3145 26.552 4.0965 26.0745 4.20844 25.5897C4.29682 25.2098 4.78143 25.2201 5.104 25.158C5.64163 25.0531 6.1822 24.9644 6.72867 24.9289C7.39739 24.8845 8.06758 24.92 8.73778 24.9289C11.9459 24.9792 15.1451 24.4825 18.2604 23.7079C18.5668 23.631 18.8747 23.5527 19.1899 23.5187C19.5463 23.4802 19.9057 23.5024 20.2622 23.4699C20.7777 23.4211 21.2284 23.1255 21.7395 23.0634C22.4186 22.9806 21.7219 23.7256 21.5834 23.9414C21.087 24.7116 20.6584 25.5364 20.1988 26.3302C20.0206 26.6377 19.8409 26.9481 19.7275 27.2867C19.6553 27.504 19.6097 27.7286 19.5655 27.9519C19.2031 29.7908 18.8393 31.6297 18.477 33.4686C18.4387 33.6607 18.4004 33.8559 18.421 34.0495C18.4372 34.2092 18.4917 34.3614 18.5241 34.5196C18.5594 34.6896 18.5698 34.864 18.5815 35.037C18.636 35.949 18.5344 37.0459 18.8835 37.8929C19.2709 38.8301 19.402 39.9432 19.6347 40.9321C19.7319 41.3431 19.8291 41.7555 19.9808 42.1487C20.1856 42.6749 20.4861 43.1583 20.7836 43.6373C21.3448 44.5375 21.9045 45.4377 22.4657 46.3394C22.9459 47.1111 23.429 47.8857 24.0256 48.5686C24.6221 49.2515 25.3144 49.7586 26.0583 50.2626C26.3337 50.4489 26.5797 50.7017 26.8389 50.9175C27.0834 51.12 27.4369 51.4216 27.378 51.7822L27.3795 51.7793ZM38.5489 14.537C38.1689 14.5459 37.7889 14.5725 37.4088 14.5991C37.02 14.6257 36.6296 14.6523 36.2408 14.6789C35.3983 14.7366 34.5984 14.8223 33.8045 15.1017C33.6263 15.1652 32.6541 15.5038 32.9414 14.9982C33.1137 14.6966 33.4996 14.5133 33.725 14.2532C33.9636 13.9782 34.2007 13.7018 34.4379 13.4254C34.7781 13.0277 35.1199 12.6301 35.4601 12.2339C35.6295 12.0373 35.8077 11.8141 36.039 11.687C36.3851 11.4948 37.0362 11.5658 37.4206 11.5584C38.0069 11.548 38.5916 11.5421 39.1779 11.5554C40.3268 11.5806 41.4801 11.6781 42.6025 11.9427C43.0355 12.0447 43.4627 12.1718 43.8898 12.299C44.5939 12.5089 45.298 12.7173 46.0006 12.9272C46.6884 13.1312 47.3778 13.3367 48.0259 13.6442C48.727 13.9753 49.3722 14.4232 50.0969 14.6996C50.3782 14.8075 50.6698 14.8888 50.9409 15.0204C51.1471 15.1209 51.3386 15.2495 51.5256 15.3825C51.9896 15.7137 52.405 16.1069 52.8277 16.4868C53.2254 16.846 53.713 17.0204 54.1018 17.4077C54.9149 18.2148 55.4805 19.2392 56.2641 20.0744C56.6648 20.5016 57.1229 20.8815 57.4454 21.3723C57.6001 21.6088 57.7194 21.8645 57.8476 22.1158C58.1701 22.75 58.5487 23.3531 58.9361 23.9488C59.4457 24.7338 59.9995 25.5084 60.3324 26.3894C60.4974 26.8284 60.5195 27.2586 60.6167 27.7079C60.7198 28.1913 60.8244 28.6851 60.9481 29.1655C61.091 29.7183 61.2692 30.2653 61.3591 30.83C61.443 31.3577 61.4474 31.8943 61.4519 32.4279C61.4622 33.5809 61.4725 34.7339 61.4828 35.8884C61.4872 36.3644 61.4902 36.8448 61.3915 37.309C61.2898 37.7894 61.0777 38.2521 61.066 38.7443C61.0615 38.9276 61.1146 39.1287 61.0527 39.3061C60.9687 39.55 60.683 39.4908 60.4797 39.4923C60.4208 39.4923 60.3619 39.4923 60.303 39.4835C60.2426 39.4746 60.1837 39.4554 60.1233 39.4465C60.0481 39.4361 59.973 39.4391 59.8979 39.4421C59.6976 39.4509 59.4958 39.4568 59.2955 39.4642C59.0834 39.4716 58.8698 39.4775 58.6577 39.4849C58.5133 39.4894 58.2718 39.5574 58.1745 39.4199C58.1392 39.3696 58.123 39.3061 58.1142 39.244C58.0803 39.0104 58.148 38.7902 58.1922 38.564C58.2732 38.156 58.2909 37.7938 58.3086 37.3844C58.3277 36.9527 58.4367 36.5314 58.4971 36.1042C58.587 35.4568 58.6267 34.7265 58.5575 34.0776C58.4824 33.371 58.3071 32.6748 58.2909 31.9623C58.2835 31.6578 58.3086 31.3532 58.2997 31.0502C58.288 30.6925 58.2305 30.3392 58.1731 29.9859C58.1377 29.7715 58.1024 29.5542 58.0361 29.3473C57.9227 28.9896 57.7238 28.6673 57.5765 28.3229C57.4292 27.9785 57.3482 27.6429 57.2554 27.3C57.0492 26.5387 56.8106 25.7774 56.4144 25.0915C56.2892 24.8742 56.1478 24.6658 56.0078 24.4588C55.4466 23.6295 54.8869 22.8003 54.3257 21.9695C54.1711 21.7404 54.0149 21.5098 53.8293 21.3043C53.4847 20.9244 53.0472 20.6406 52.7231 20.2415C52.433 19.8837 52.1074 19.5127 51.7598 19.2082C51.5463 19.0219 51.3076 18.8652 51.0705 18.71C50.5991 18.4011 50.1263 18.0921 49.655 17.7832C48.8949 17.285 48.1128 16.741 47.2555 16.4232C46.3305 16.0803 45.4055 15.7166 44.4422 15.4638C43.4494 15.2052 42.4404 15.0174 41.4315 14.8341C40.7038 14.7026 39.9747 14.571 39.2353 14.54C39.007 14.5296 38.7787 14.5296 38.5504 14.5355L38.5489 14.537ZM41.6996 4.89752C41.6966 5.62628 40.6066 6.0328 40.0808 6.35505C39.2544 6.86356 38.4267 7.37059 37.6003 7.87909C36.9949 8.25161 36.3734 8.63742 35.9462 9.20654C35.5986 9.6707 35.385 10.2472 34.9343 10.6123C34.7251 10.7823 34.4762 10.8947 34.2479 11.0395C33.915 11.2524 33.6307 11.5318 33.3553 11.8171C32.6026 12.5991 31.9059 13.4372 31.2725 14.3197C31.1031 14.5562 30.9382 14.7957 30.7526 15.0174C30.4432 15.3885 30.0779 15.7078 29.7141 16.0256C29.1367 16.5311 28.5593 17.0367 27.9819 17.5407C27.4384 18.0167 26.8566 18.6538 26.207 18.9791C25.6723 19.2466 25.0449 19.3043 24.5117 19.6073C24.005 19.8956 23.5248 20.2282 22.9916 20.4647C22.5305 20.6687 22.0386 20.7958 21.5495 20.92C19.7157 21.3841 17.873 21.8113 16.0215 22.1971C15.6356 22.2784 15.2482 22.3568 14.855 22.4011C14.5309 22.4366 14.2039 22.4484 13.8799 22.4854C12.4423 22.648 11.0916 23.2925 9.65249 23.4566C8.39164 23.6 6.89364 23.4477 5.68435 23.0471C5.35588 22.9392 5.32642 23.0087 5.3058 22.6569C5.2896 22.4026 5.43689 22.0907 5.52969 21.8616C5.73148 21.3575 6.01576 20.8904 6.1719 20.3686C6.32361 19.8586 6.36043 19.2836 6.70952 18.8859C7.26777 18.2503 8.28558 18.4144 9.03973 18.4144C11.7544 18.4144 14.4882 18.0182 17.0673 17.1594C20.5612 15.9975 23.7163 13.9295 26.0126 11.0233C27.4148 9.2494 28.4709 7.22276 29.2207 5.09117C29.3179 4.81474 29.3724 4.46588 29.5109 4.21015C29.692 3.87755 29.8187 3.88938 30.2223 3.80068C30.9956 3.62921 31.7792 3.50947 32.5687 3.44147C34.1462 3.30696 35.7429 3.38087 37.2998 3.66469C37.6681 3.73268 38.0334 3.81103 38.4001 3.88938C38.7934 3.97363 39.1867 4.05937 39.5814 4.14363C40.2855 4.29589 40.9896 4.44666 41.6937 4.59892C41.6951 4.71127 41.6981 4.80883 41.6981 4.89457L41.6996 4.89752ZM27.3383 4.33875C27.3898 4.41858 27.4031 4.55901 27.3618 4.77926C27.2646 5.30847 26.8021 5.92932 26.5473 6.40087C26.2733 6.90495 25.9875 7.40458 25.7033 7.90274C25.4293 8.38169 25.1553 8.86063 24.8416 9.31445C23.3333 11.4904 21.009 12.9317 18.7539 14.3123C18.5094 14.4616 18.2648 14.6109 18.0056 14.7306C17.6609 14.8888 17.2927 14.9938 16.9274 15.0958C16.3485 15.2584 15.7697 15.421 15.1923 15.5851C13.8519 15.962 12.4997 16.3404 11.1122 16.4971C10.439 16.574 9.77032 16.5829 9.09423 16.5415C8.35334 16.4956 8.59196 16.2636 8.97198 15.8127C9.29751 15.4254 9.63628 15.0514 9.98979 14.6893C10.6953 13.9649 11.4539 13.2938 12.2581 12.6818C12.7855 12.2798 13.3378 11.8984 13.7723 11.3958C14.1641 10.942 14.4543 10.3921 14.9286 10.0269C15.3602 9.69435 15.9022 9.54801 16.3795 9.28784C16.786 9.0661 17.141 8.76307 17.5063 8.47925C19.4462 6.96703 21.7351 5.90715 24.1405 5.40751C24.7886 5.27299 25.4602 5.17247 26.0288 4.83396C26.316 4.66249 27.135 4.0165 27.3412 4.34319L27.3383 4.33875ZM2.60734 30.2638C2.61471 30.2638 2.62208 30.2653 2.62944 30.2682C2.63975 30.2727 2.64711 30.2815 2.65448 30.2889C2.85627 30.4929 2.84891 30.725 2.88131 31.0073C2.91372 31.2823 2.93729 31.5587 2.98884 31.8307C3.37623 33.8367 4.05526 35.7303 4.63118 37.6859C4.82561 38.3452 5.01563 39.0149 5.35293 39.6135C5.7197 40.2654 6.25438 40.8227 6.52687 41.519C6.6344 41.7939 6.69773 42.0836 6.81999 42.3527C7.00116 42.7533 7.29871 43.0874 7.58888 43.4185C8.27675 44.2049 8.93957 45.012 9.57589 45.8398C9.94855 46.3247 10.277 46.8435 10.6836 47.3003C11.0901 47.7571 11.6056 48.097 12.0667 48.4976C13.0845 49.3772 14.1774 50.168 15.3322 50.8584C15.752 51.1082 16.1791 51.3462 16.6284 51.5383C17.2721 51.8148 17.9526 51.9951 18.6301 52.174C19.8424 52.4948 21.0561 52.8155 22.2683 53.1363C23.3731 53.429 24.4866 53.7202 25.6267 53.834C26.2011 53.8917 26.7771 53.8976 27.353 53.8444C27.6122 53.8192 28.5269 53.9005 28.1513 54.381C27.9613 54.6234 27.2396 54.7121 26.9523 54.823C26.182 55.1186 25.3969 55.3743 24.5986 55.5813C22.9253 56.0174 21.2004 56.2391 19.4712 56.2391C16.5091 56.2391 13.6957 54.783 11.3125 53.1348C9.12074 51.6197 7.12932 49.8088 5.30875 47.865C4.92578 47.457 4.55165 47.0416 4.18636 46.6188C3.9227 46.3128 3.89176 46.0261 3.78571 45.6269C3.58244 44.8568 3.3777 44.0852 3.17443 43.315C2.92697 42.3778 2.67805 41.4318 2.63533 40.4635C2.61618 40.0186 2.63975 39.5722 2.59262 39.1287C2.55285 38.7503 2.46005 38.3792 2.40408 38.0023C2.31864 37.4317 2.31717 36.8537 2.31423 36.2772C2.31128 35.6475 2.30834 35.0192 2.30686 34.3895C2.30392 33.6548 2.30097 32.9187 2.33927 32.1855C2.35694 31.844 2.36136 31.5011 2.38788 31.1596C2.40113 30.9866 2.42176 30.8152 2.4468 30.6422C2.46447 30.5136 2.42028 30.3407 2.56316 30.2727C2.57641 30.2667 2.59261 30.2608 2.60734 30.2623V30.2638ZM7.09985 52.4652C7.11017 52.4548 7.12489 52.4489 7.14257 52.446C7.48577 52.3868 8.01898 53.0447 8.28117 53.256C11.0444 55.4793 14.3453 57.1098 17.7626 58.0455C18.3179 58.1977 18.885 58.3322 19.4609 58.3352C20.0898 58.3382 20.7085 58.1815 21.3183 58.0277C22.8855 57.6301 24.4527 57.2339 26.02 56.8363C26.9479 56.6012 27.8803 56.3647 28.7685 56.007C29.3223 55.7838 29.857 55.5148 30.3917 55.2472C31.084 54.8998 31.7748 54.551 32.4671 54.2036C33.6145 53.6256 34.7634 53.0476 35.8784 52.4075C37.7226 51.3491 39.4253 50.1045 41.1148 48.8096C41.8778 48.2257 42.6791 47.6964 43.4804 47.1672C44.8369 46.27 46.1935 45.3727 47.5516 44.4769C48.076 44.1295 48.6048 43.7821 49.1807 43.5323C49.6977 43.3091 50.2456 43.1701 50.7906 43.0312C51.7981 42.774 52.8071 42.5182 53.8146 42.261C55.401 41.8575 56.9947 41.451 58.6238 41.2913C60.0305 41.1524 61.4474 41.2145 62.8158 41.5825C63.5449 41.7791 65.2742 41.6032 65.6189 42.4902C65.6763 42.6395 65.6395 42.8065 65.5997 42.9617C65.476 43.4584 65.3537 43.9551 65.23 44.4518C65.1946 44.5966 65.1578 44.743 65.0989 44.8804C65.012 45.0815 64.878 45.2589 64.8043 45.4643C64.741 45.6402 64.7233 45.8339 64.6231 45.9921C64.5097 46.1724 64.2976 46.2108 64.1017 46.1946C63.6554 46.1547 63.2253 46.0261 62.7864 45.9477C62.3489 45.8679 61.8628 45.9108 61.4165 45.9093C60.4591 45.9063 59.5017 45.9211 58.5443 45.9521C58.0037 45.9699 57.4616 45.9935 56.9255 46.066C56.3142 46.1502 55.7147 46.2981 55.1152 46.4459C53.221 46.9145 51.3209 47.3845 49.4959 48.0764C47.7372 48.743 45.8356 49.6285 44.4731 50.9604C43.6026 51.8103 42.4832 52.3277 41.5788 53.1304C41.1855 53.4793 40.885 53.9138 40.4888 54.2701C40.0837 54.6337 39.6507 54.9663 39.2927 55.3788C38.9761 55.7424 38.7271 56.1578 38.4443 56.5495C37.646 57.6537 36.5972 58.5436 35.4955 59.33C34.4246 60.0943 33.3302 60.9605 32.1298 61.5001C31.6275 61.7262 31.0987 61.8859 30.5684 62.0352C29.5904 62.3116 28.6006 62.557 27.5901 62.6708C26.2983 62.8157 24.9933 62.7403 23.6971 62.6649C23.2096 62.6368 22.7235 62.6087 22.2359 62.5807C21.6217 62.5452 21.0045 62.5097 20.3977 62.4047C19.4874 62.2481 18.608 61.911 17.6875 61.8519C16.2248 61.7588 14.7003 60.8689 13.5278 60.0366C11.75 58.7757 10.3683 57.0403 9.01322 55.33C8.78049 55.0358 6.71689 52.8229 7.09838 52.4696L7.09985 52.4652ZM21.2167 64.9296C21.4405 64.7019 22.5408 65.0375 22.8693 65.0611C23.5218 65.1069 24.1773 65.0892 24.8283 65.0242C29.2251 64.5896 33.5129 63.0685 37.2041 60.6309C37.7844 60.2465 38.3589 59.8341 38.8008 59.2946C39.2603 58.7328 39.5564 58.0573 39.9777 57.466C41.156 55.806 43.1548 54.9826 44.7648 53.7409C45.7929 52.9486 46.6737 51.9759 47.7107 51.1939C49.9422 49.5132 52.7423 48.8243 55.4569 48.1739C56.8901 47.831 58.341 47.4998 59.8169 47.423C60.4782 47.389 61.1411 47.4304 61.7951 47.5427C62.3283 47.6344 62.8747 47.5856 63.3299 47.8945C63.8852 48.2715 63.7349 48.6189 63.461 49.1407C63.1001 49.8251 62.6818 50.4859 62.2929 51.157C61.9924 51.6758 61.6168 52.4282 61.0556 52.7135C60.4886 53.0018 59.7447 52.8821 59.132 52.8717C58.5015 52.8614 57.9035 52.8407 57.2657 52.9205C55.7618 53.1067 54.2933 53.5059 52.8336 53.9035C52.5582 53.9789 52.2827 54.0528 52.0176 54.1578C51.7466 54.2657 51.4888 54.4031 51.2325 54.5421C49.2484 55.6168 47.3041 56.7653 45.404 57.9819C45.1477 58.146 44.8914 58.3116 44.6631 58.5111C44.2831 58.8422 43.987 59.2561 43.6939 59.6671C42.3314 61.5769 40.9439 63.5252 40.125 65.744C39.9836 66.1284 39.9629 66.5467 39.8348 66.9355C39.6831 67.4011 39.2574 67.4366 38.8111 67.5475C37.7564 67.8091 36.662 67.8313 35.5824 67.8535C34.6853 67.8712 33.7868 67.8904 32.8898 67.9082C31.8087 67.9303 30.7098 67.9495 29.667 67.6643C29.2914 67.5608 28.9261 67.4189 28.5417 67.3494C28.197 67.2858 27.8435 67.2829 27.4959 67.243C26.6784 67.1498 25.8977 66.8586 25.1288 66.563C24.4542 66.3043 23.7811 66.0397 23.1109 65.7707C22.7647 65.6317 22.42 65.4913 22.0754 65.3508C21.8235 65.2474 21.3787 65.1557 21.2181 64.9296H21.2167ZM42.0133 66.7936C41.7408 66.495 42.0943 65.9259 42.2225 65.6391C42.4434 65.1483 42.4625 64.6783 42.7925 64.2156C43.1681 63.6878 43.5437 63.1616 43.9178 62.6339C44.3052 62.0899 44.6985 61.5385 45.2155 61.1187C45.7944 60.6486 46.5191 60.3485 46.983 59.7646C47.2305 59.4527 47.3881 59.0773 47.6444 58.7728C47.9154 58.4505 48.2822 58.2258 48.6416 58.0056C49.1247 57.7114 49.6064 57.4172 50.0895 57.1245C50.4312 56.9161 50.7729 56.7077 51.1382 56.548C51.4638 56.4047 51.8055 56.3012 52.1472 56.2021C53.5583 55.7941 54.9944 55.4719 56.4438 55.2369C57.0566 55.1378 57.6222 55.0403 58.2099 54.8658C58.5958 54.7505 59.3146 54.6293 59.3971 55.1881C59.4619 55.6315 59.0966 55.9582 58.8654 56.282C58.5767 56.6855 58.3263 57.1231 58.0597 57.5429C57.9021 57.7897 57.7444 58.0366 57.5544 58.2583C57.332 58.5185 57.0684 58.7388 56.8032 58.9561C55.2831 60.2007 53.6879 61.3493 52.0942 62.4979C51.7392 62.7536 51.3857 63.0093 51.0116 63.234C49.9172 63.8918 48.6681 64.2791 47.6297 65.0242C46.9403 65.5179 46.3173 66.1786 45.488 66.3486C45.1949 66.4092 44.8914 66.4019 44.5924 66.3945C44.0195 66.3812 43.7366 66.4566 43.2196 66.6576C42.9413 66.767 42.3462 67.0464 42.059 66.8379C42.0413 66.8246 42.0265 66.8113 42.0118 66.7965L42.0133 66.7936Z" fill="#B78C57"/>
<path d="M86.796 54.7104L85 49.8368H85.8287L86.8583 52.6985C86.8961 52.8012 86.9321 52.91 86.9698 53.0259C87.0076 53.1418 87.0435 53.2594 87.0813 53.3779C87.1182 53.4964 87.1533 53.6096 87.1857 53.7194C87.2182 53.8282 87.249 53.9292 87.277 54.0213L86.9707 54.0143C87.0172 53.8888 87.069 53.751 87.1269 53.6C87.1857 53.4499 87.2463 53.2963 87.3122 53.1409C87.3771 52.9846 87.4394 52.8381 87.5 52.6985L88.398 50.6795H89.1222L89.9921 52.6836C90.0527 52.8144 90.1141 52.9557 90.1773 53.1093C90.2397 53.2612 90.2993 53.4104 90.3582 53.5543C90.4161 53.6983 90.4591 53.8309 90.4863 53.9511L90.2081 54.0003C90.2309 53.9213 90.2555 53.8388 90.2809 53.7527C90.3064 53.6667 90.3336 53.5763 90.3608 53.4815C90.3889 53.3867 90.4187 53.2919 90.4512 53.1962C90.4837 53.1014 90.517 53.0066 90.5522 52.9135C90.5873 52.8214 90.6206 52.7327 90.6531 52.6493L91.7943 49.8359H92.6018L90.5969 54.7095H90.0746L88.6614 51.4309L88.7939 51.4581L87.3736 54.7095H86.796V54.7104Z" fill="#B78C57"/>
<path d="M98.0234 54.7095V49.8359H102.068V50.561H98.7757V53.9862H102.068V54.7095H98.0234ZM98.4343 52.573V51.8488H101.686V52.573H98.4343Z" fill="#B78C57"/>
<path d="M107.93 54.7095V49.8359H108.682V53.9862H111.94V54.7095H107.931H107.93Z" fill="#B78C57"/>
<path d="M117.535 54.7095V49.8359H118.287V53.9862H121.546V54.7095H117.536H117.535Z" fill="#B78C57"/>
<path d="M127.141 54.7095V49.8359H127.885L131.84 53.8256L131.797 53.8879C131.775 53.7492 131.754 53.5991 131.739 53.4394C131.722 53.2787 131.71 53.1146 131.701 52.9443C131.691 52.7757 131.683 52.6037 131.676 52.4299C131.669 52.2561 131.665 52.0849 131.663 51.9181C131.66 51.7504 131.659 51.5907 131.659 51.4379V49.8359H132.411V54.7095H131.653L127.747 50.8665L127.754 50.7682C127.763 50.8524 127.773 50.9516 127.782 51.0684C127.791 51.1843 127.802 51.3098 127.817 51.4441C127.831 51.5784 127.844 51.7171 127.855 51.8584C127.867 52.0006 127.876 52.1419 127.883 52.2833C127.89 52.4246 127.894 52.558 127.894 52.6827V54.7087H127.142L127.141 54.7095Z" fill="#B78C57"/>
<path d="M138.484 54.7095V49.8359H142.529V50.561H139.237V53.9862H142.529V54.7095H138.484ZM138.895 52.573V51.8488H142.147V52.573H138.895Z" fill="#B78C57"/>
<path d="M150.424 54.7807C150.076 54.7807 149.754 54.7455 149.459 54.6762C149.165 54.606 148.896 54.5024 148.653 54.3619C148.409 54.2232 148.187 54.0468 147.988 53.8326L148.461 53.2059C148.763 53.5175 149.071 53.744 149.384 53.8888C149.697 54.0328 150.046 54.1047 150.432 54.1047C150.674 54.1047 150.905 54.0758 151.128 54.0178C151.351 53.959 151.534 53.8712 151.679 53.7527C151.822 53.6342 151.895 53.485 151.895 53.3042C151.895 53.1883 151.855 53.0935 151.776 53.0189C151.697 52.9452 151.593 52.8846 151.467 52.8381C151.339 52.7915 151.201 52.7547 151.053 52.7266C150.904 52.6985 150.762 52.6774 150.625 52.6643C150.488 52.6511 150.373 52.6388 150.28 52.6291C149.969 52.5888 149.688 52.5308 149.434 52.4588C149.18 52.3869 148.965 52.2947 148.786 52.1841C148.607 52.0726 148.471 51.9357 148.375 51.7724C148.28 51.6091 148.232 51.4222 148.232 51.2088C148.232 50.9815 148.287 50.7778 148.396 50.5996C148.505 50.4206 148.658 50.2696 148.856 50.1467C149.054 50.0247 149.283 49.9299 149.546 49.8649C149.808 49.8 150.092 49.7666 150.399 49.7666C150.724 49.7666 151.02 49.7991 151.29 49.8649C151.559 49.9299 151.8 50.0256 152.01 50.1528C152.222 50.281 152.398 50.4372 152.536 50.6233L152.035 51.1729C151.905 51.0148 151.754 50.8823 151.583 50.7734C151.411 50.6646 151.224 50.5821 151.022 50.5259C150.82 50.4697 150.605 50.4434 150.379 50.4434C150.128 50.4434 149.903 50.4706 149.704 50.5259C149.503 50.5821 149.346 50.6593 149.23 50.7594C149.114 50.8586 149.056 50.9806 149.056 51.1246C149.056 51.2501 149.092 51.3563 149.164 51.445C149.236 51.5336 149.337 51.6065 149.467 51.6636C149.596 51.7224 149.753 51.7698 149.936 51.8066C150.119 51.8444 150.322 51.8769 150.545 51.9049C150.824 51.9374 151.092 51.9787 151.353 52.0305C151.613 52.0823 151.845 52.1525 152.049 52.2429C152.253 52.3342 152.415 52.4553 152.536 52.609C152.657 52.7626 152.718 52.9618 152.718 53.2076C152.718 53.5236 152.623 53.8001 152.433 54.0363C152.242 54.2733 151.976 54.4567 151.635 54.5867C151.294 54.7166 150.891 54.7815 150.427 54.7815L150.424 54.7807Z" fill="#B78C57"/>
<path d="M160.463 54.7807C160.115 54.7807 159.794 54.7455 159.499 54.6762C159.204 54.606 158.935 54.5024 158.692 54.3619C158.448 54.2232 158.226 54.0468 158.027 53.8326L158.5 53.2059C158.802 53.5175 159.11 53.744 159.423 53.8888C159.736 54.0328 160.085 54.1047 160.471 54.1047C160.713 54.1047 160.944 54.0758 161.167 54.0178C161.39 53.959 161.573 53.8712 161.718 53.7527C161.861 53.6342 161.934 53.485 161.934 53.3042C161.934 53.1883 161.894 53.0935 161.815 53.0189C161.736 52.9452 161.633 52.8846 161.506 52.8381C161.378 52.7915 161.24 52.7547 161.092 52.7266C160.943 52.6985 160.801 52.6774 160.664 52.6643C160.527 52.6511 160.412 52.6388 160.319 52.6291C160.008 52.5888 159.727 52.5308 159.473 52.4588C159.219 52.3869 159.004 52.2947 158.825 52.1841C158.646 52.0726 158.51 51.9357 158.414 51.7724C158.32 51.61 158.271 51.4222 158.271 51.2088C158.271 50.9815 158.326 50.7778 158.436 50.5996C158.544 50.4206 158.697 50.2696 158.896 50.1467C159.093 50.0247 159.322 49.9299 159.585 49.8649C159.847 49.8 160.131 49.7666 160.438 49.7666C160.763 49.7666 161.059 49.7991 161.329 49.8649C161.598 49.9299 161.839 50.0256 162.049 50.1528C162.261 50.281 162.437 50.4372 162.575 50.6233L162.074 51.1729C161.944 51.0148 161.793 50.8823 161.622 50.7734C161.45 50.6646 161.263 50.5821 161.061 50.5259C160.859 50.4697 160.644 50.4434 160.418 50.4434C160.167 50.4434 159.942 50.4706 159.743 50.5259C159.542 50.5821 159.385 50.6593 159.269 50.7594C159.153 50.8586 159.095 50.9806 159.095 51.1246C159.095 51.2501 159.131 51.3563 159.203 51.445C159.275 51.5336 159.376 51.6065 159.506 51.6636C159.635 51.7224 159.792 51.7698 159.975 51.8066C160.158 51.8444 160.361 51.8769 160.584 51.9049C160.863 51.9374 161.131 51.9787 161.392 52.0305C161.652 52.0823 161.884 52.1525 162.088 52.2429C162.292 52.3342 162.454 52.4553 162.575 52.609C162.696 52.7626 162.757 52.9618 162.757 53.2076C162.757 53.5236 162.662 53.8001 162.472 54.0363C162.281 54.2733 162.015 54.4567 161.674 54.5867C161.333 54.7166 160.93 54.7815 160.466 54.7815L160.463 54.7807Z" fill="#B78C57"/>
<path d="M85 35.6402C85 34.2796 85.8374 33.4422 86.954 33.4422C88.0706 33.4422 88.8387 34.2796 88.8387 35.3611C87.8968 35.3611 87.2683 35.9194 87.2683 36.8964C87.2683 38.8855 89.7806 40.247 93.3752 40.247C97.737 40.247 100.704 38.1876 100.704 35.3962C100.704 32.3247 97.2841 30.8948 93.4103 29.3586C89.9201 27.998 85.6276 26.2871 85.6276 22.1702C85.6276 18.4711 89.1178 15.8184 93.8281 15.8184C98.1558 15.8184 101.505 18.0515 101.505 20.8087C101.505 22.1 100.737 22.9374 99.6559 22.9374C98.5745 22.9374 97.6668 22.1 97.6668 21.0185C98.7834 21.0185 99.4813 20.4953 99.4813 19.5183C99.4813 17.7381 97.213 16.5171 94.1766 16.5171C90.1984 16.5171 87.3718 18.6458 87.3718 21.367C87.3718 24.4385 91.0358 25.9738 94.5602 27.3344C98.6429 28.9048 102.447 30.3707 102.447 34.4534C102.447 38.5361 98.7834 40.944 93.7579 40.944C88.7325 40.944 85 38.537 85 35.6402Z" fill="#B78C57"/>
<path d="M125.731 16.168V20.0769C124.824 18.158 123.009 16.8667 121.16 16.8667H117.181V38.4679C117.181 39.3053 117.496 40.1779 117.914 40.5966H114.215C114.634 40.1779 114.913 39.3053 114.913 38.4679V16.8667H110.97C109.12 16.8667 107.306 18.158 106.363 20.0769V16.168H125.731Z" fill="#B78C57"/>
<path d="M151.385 38.467C151.385 39.3044 151.664 40.177 152.083 40.5957H148.419C148.837 40.177 149.117 39.3044 149.117 38.467V28.5565H133.622V38.467C133.622 39.3044 133.902 40.177 134.32 40.5957H130.656C131.075 40.177 131.354 39.3044 131.354 38.467V18.2967C131.354 17.4592 131.075 16.5867 130.656 16.168H134.32C133.902 16.5867 133.622 17.4592 133.622 18.2967V27.8587H149.117V18.2967C149.117 17.4592 148.837 16.5867 148.419 16.168H152.083C151.664 16.5867 151.385 17.4592 151.385 18.2967V38.467Z" fill="#B78C57"/>
<path d="M159.448 38.467V18.2967C159.448 17.4592 159.169 16.5867 158.75 16.168H162.414C161.995 16.5867 161.716 17.4592 161.716 18.2967V38.467C161.716 39.3044 161.995 40.177 162.414 40.5957H158.75C159.169 40.177 159.448 39.3044 159.448 38.467Z" fill="#B78C57"/>
<path d="M189.896 40.5956H187.173C186.196 40.0724 185.359 39.2701 184.766 38.3273L181.067 32.2897C180.543 31.4172 179.705 30.6149 178.763 30.1259H171.993V38.466C171.993 39.3035 172.273 40.176 172.691 40.5947H169.027C169.446 40.176 169.725 39.3035 169.725 38.466V18.2957C169.725 17.4583 169.446 16.5857 169.027 16.167H179.042C183.998 16.167 187.767 19.1331 187.767 23.0762C187.767 26.7051 184.695 29.5325 180.473 30.0557C181.974 30.5095 183.125 31.3119 183.754 32.3591L187.209 37.942C187.906 39.0937 188.989 40.1751 189.896 40.5938V40.5956ZM171.993 29.4281H178.659C182.706 29.4281 185.359 26.9509 185.359 23.1465C185.359 19.342 182.707 16.8649 178.659 16.8649H171.993V29.4281Z" fill="#B78C57"/>
<path d="M215.196 40.5956H212.474C211.497 40.0724 210.66 39.2701 210.066 38.3273L206.367 32.2897C205.844 31.4172 205.006 30.6149 204.064 30.1259H197.294V38.466C197.294 39.3035 197.573 40.176 197.992 40.5947H194.328C194.747 40.176 195.026 39.3035 195.026 38.466V18.2957C195.026 17.4583 194.747 16.5857 194.328 16.167H204.343C209.298 16.167 213.068 19.1331 213.068 23.0762C213.068 26.7051 209.996 29.5325 205.774 30.0557C207.275 30.5095 208.426 31.3119 209.054 32.3591L212.509 37.942C213.207 39.0937 214.289 40.1751 215.196 40.5938V40.5956ZM197.294 29.4281H203.959C208.007 29.4281 210.66 26.9509 210.66 23.1465C210.66 19.342 208.008 16.8649 203.959 16.8649H197.294V29.4281Z" fill="#B78C57"/>
</svg>
