<svg width="193" height="131" viewBox="0 0 193 131" fill="none" xmlns="http://www.w3.org/2000/svg">
<g clip-path="url(#clip0_39_33)">
<g filter="url(#filter0_d_39_33)">
<path d="M41.5334 130.837L38.8711 123.548H40.0994L41.6258 127.828C41.6817 127.982 41.7351 128.144 41.791 128.318C41.847 128.491 41.9003 128.667 41.9563 128.844C42.0109 129.021 42.063 129.191 42.1111 129.355C42.1593 129.518 42.2048 129.669 42.2464 129.807L41.7923 129.796C41.8613 129.608 41.9381 129.402 42.0239 129.176C42.1111 128.952 42.2009 128.722 42.2985 128.49C42.3948 128.256 42.4872 128.037 42.5769 127.828L43.9081 124.809H44.9816L46.2711 127.806C46.3609 128.001 46.452 128.213 46.5457 128.442C46.638 128.67 46.7265 128.893 46.8137 129.108C46.8996 129.323 46.9633 129.522 47.0037 129.702L46.5912 129.775C46.625 129.657 46.6615 129.533 46.6992 129.405C46.7369 129.276 46.7773 129.141 46.8176 128.999C46.8592 128.857 46.9035 128.716 46.9516 128.572C46.9998 128.431 47.0492 128.289 47.1013 128.15C47.1533 128.012 47.2028 127.879 47.2509 127.755L48.9425 123.547H50.1396L47.1676 130.836H46.3934L44.2985 125.932L44.4949 125.973L42.3896 130.836H41.5334V130.837Z" fill="#B78C57"/>
<path d="M58.1797 130.838V123.549H64.1757V124.633H59.2948V129.756H64.1757V130.838H58.1797ZM58.7887 127.642V126.559H63.6084V127.642H58.7887Z" fill="#B78C57"/>
<path d="M72.8594 130.838V123.549H73.9745V129.756H78.8046V130.838H72.8607H72.8594Z" fill="#B78C57"/>
<path d="M87.0977 130.838V123.549H88.2128V129.756H93.0429V130.838H87.099H87.0977Z" fill="#B78C57"/>
<path d="M101.34 130.838V123.549H102.443L108.305 129.516L108.243 129.609C108.209 129.402 108.179 129.177 108.156 128.938C108.131 128.698 108.113 128.452 108.1 128.198C108.085 127.946 108.074 127.688 108.063 127.428C108.053 127.168 108.046 126.912 108.044 126.663C108.04 126.412 108.037 126.173 108.037 125.945V123.549H109.152V130.838H108.028L102.239 125.09L102.249 124.943C102.262 125.069 102.277 125.217 102.291 125.392C102.304 125.565 102.321 125.753 102.343 125.954C102.363 126.155 102.382 126.362 102.399 126.574C102.416 126.786 102.43 126.998 102.441 127.209C102.451 127.42 102.456 127.62 102.456 127.806V130.836H101.341L101.34 130.838Z" fill="#B78C57"/>
<path d="M118.156 130.838V123.549H124.152V124.633H119.271V129.756H124.152V130.838H118.156ZM118.765 127.642V126.559H123.585V127.642H118.765Z" fill="#B78C57"/>
<path d="M135.853 130.942C135.336 130.942 134.86 130.89 134.423 130.786C133.987 130.681 133.588 130.526 133.227 130.316C132.865 130.109 132.536 129.845 132.242 129.524L132.944 128.587C133.391 129.053 133.847 129.392 134.311 129.608C134.776 129.824 135.292 129.931 135.865 129.931C136.223 129.931 136.566 129.888 136.897 129.801C137.227 129.714 137.498 129.582 137.712 129.405C137.925 129.228 138.033 129.005 138.033 128.734C138.033 128.561 137.974 128.419 137.857 128.307C137.74 128.197 137.586 128.107 137.399 128.037C137.209 127.967 137.005 127.912 136.785 127.87C136.565 127.828 136.354 127.797 136.151 127.777C135.948 127.757 135.778 127.739 135.64 127.725C135.178 127.664 134.761 127.578 134.385 127.47C134.009 127.362 133.69 127.224 133.425 127.059C133.16 126.892 132.958 126.687 132.816 126.443C132.674 126.199 132.604 125.919 132.604 125.6C132.604 125.26 132.685 124.956 132.847 124.689C133.009 124.421 133.235 124.196 133.529 124.012C133.822 123.829 134.161 123.688 134.551 123.59C134.94 123.493 135.361 123.443 135.815 123.443C136.297 123.443 136.737 123.492 137.136 123.59C137.536 123.688 137.892 123.831 138.204 124.021C138.518 124.213 138.778 124.446 138.984 124.725L138.241 125.547C138.048 125.31 137.824 125.112 137.571 124.949C137.316 124.786 137.038 124.663 136.739 124.579C136.44 124.495 136.121 124.456 135.785 124.456C135.413 124.456 135.08 124.496 134.785 124.579C134.488 124.663 134.255 124.779 134.082 124.928C133.91 125.077 133.824 125.259 133.824 125.474C133.824 125.662 133.878 125.821 133.985 125.954C134.091 126.086 134.241 126.195 134.433 126.28C134.626 126.368 134.858 126.439 135.13 126.494C135.4 126.551 135.702 126.599 136.033 126.641C136.445 126.69 136.843 126.752 137.23 126.829C137.615 126.907 137.958 127.012 138.262 127.147C138.563 127.283 138.804 127.465 138.984 127.694C139.163 127.924 139.253 128.222 139.253 128.59C139.253 129.062 139.113 129.476 138.83 129.829C138.548 130.184 138.154 130.458 137.647 130.652C137.143 130.847 136.545 130.944 135.857 130.944L135.853 130.942Z" fill="#B78C57"/>
<path d="M150.736 130.942C150.219 130.942 149.743 130.89 149.306 130.786C148.87 130.681 148.47 130.526 148.11 130.316C147.748 130.109 147.419 129.845 147.125 129.524L147.826 128.587C148.274 129.053 148.729 129.392 149.194 129.608C149.658 129.824 150.175 129.931 150.748 129.931C151.105 129.931 151.449 129.888 151.779 129.801C152.11 129.714 152.381 129.582 152.595 129.405C152.807 129.228 152.915 129.005 152.915 128.734C152.915 128.561 152.857 128.419 152.74 128.307C152.623 128.197 152.469 128.107 152.282 128.037C152.092 127.967 151.887 127.912 151.668 127.87C151.448 127.828 151.237 127.797 151.034 127.777C150.831 127.757 150.66 127.739 150.522 127.725C150.061 127.664 149.644 127.578 149.268 127.47C148.892 127.362 148.573 127.224 148.308 127.059C148.042 126.892 147.841 126.687 147.699 126.443C147.558 126.2 147.487 125.919 147.487 125.6C147.487 125.26 147.567 124.956 147.73 124.689C147.891 124.421 148.118 124.196 148.412 124.012C148.705 123.829 149.044 123.688 149.433 123.59C149.822 123.493 150.244 123.443 150.698 123.443C151.18 123.443 151.619 123.492 152.019 123.59C152.418 123.688 152.775 123.831 153.087 124.021C153.401 124.213 153.661 124.446 153.867 124.725L153.124 125.547C152.931 125.31 152.707 125.112 152.453 124.949C152.198 124.786 151.921 124.663 151.622 124.579C151.323 124.495 151.004 124.456 150.668 124.456C150.296 124.456 149.963 124.496 149.668 124.579C149.371 124.663 149.138 124.779 148.965 124.928C148.793 125.077 148.707 125.259 148.707 125.474C148.707 125.662 148.761 125.821 148.867 125.954C148.974 126.086 149.124 126.195 149.316 126.28C149.509 126.368 149.74 126.439 150.012 126.494C150.283 126.551 150.585 126.599 150.915 126.641C151.328 126.69 151.726 126.752 152.113 126.829C152.498 126.907 152.841 127.012 153.144 127.147C153.446 127.283 153.687 127.465 153.867 127.694C154.046 127.924 154.136 128.222 154.136 128.59C154.136 129.062 153.995 129.476 153.713 129.829C153.431 130.184 153.036 130.458 152.53 130.652C152.025 130.847 151.428 130.944 150.74 130.944L150.736 130.942Z" fill="#B78C57"/>
</g>
<g filter="url(#filter1_d_39_33)">
<path d="M0 102.317C0 100.282 1.24136 99.0299 2.8965 99.0299C4.55165 99.0299 5.69021 100.282 5.69021 101.9C4.29401 101.9 3.36234 102.735 3.36234 104.196C3.36234 107.171 7.08641 109.207 12.4149 109.207C18.8806 109.207 23.2787 106.127 23.2787 101.952C23.2787 97.3587 18.2092 95.2201 12.4669 92.9226C7.29331 90.8877 0.930368 88.3289 0.930368 82.1717C0.930368 76.6393 6.104 72.6719 13.0863 72.6719C19.5013 72.6719 24.4667 76.0118 24.4667 80.1354C24.4667 82.0666 23.3282 83.3191 21.7251 83.3191C20.122 83.3191 18.7765 82.0666 18.7765 80.4492C20.4317 80.4492 21.4661 79.6667 21.4661 78.2055C21.4661 75.5431 18.1038 73.7169 13.6029 73.7169C7.70579 73.7169 3.51588 76.9006 3.51588 80.9704C3.51588 85.5641 8.94715 87.8602 14.1715 89.8951C20.2235 92.2438 25.8629 94.4363 25.8629 100.542C25.8629 106.648 20.4317 110.25 12.9822 110.25C5.53276 110.25 0 106.65 0 102.317Z" fill="#B78C57"/>
<path d="M60.378 73.1943V79.0404C59.0325 76.1706 56.3429 74.2394 53.6012 74.2394H47.7041V106.546C47.7041 107.798 48.17 109.103 48.7906 109.73H43.3073C43.928 109.103 44.3418 107.798 44.3418 106.546V74.2394H38.4967C35.7551 74.2394 33.0655 76.1706 31.668 79.0404V73.1943H60.378Z" fill="#B78C57"/>
<path d="M98.4105 106.545C98.4105 107.797 98.8243 109.102 99.4449 109.728H94.0137C94.6344 109.102 95.0481 107.797 95.0481 106.545V91.7226H72.0804V106.545C72.0804 107.797 72.4942 109.102 73.1149 109.728H67.6836C68.3043 109.102 68.7181 107.797 68.7181 106.545V76.378C68.7181 75.1255 68.3043 73.8206 67.6836 73.1943H73.1149C72.4942 73.8206 72.0804 75.1255 72.0804 76.378V90.6789H95.0481V76.378C95.0481 75.1255 94.6344 73.8206 94.0137 73.1943H99.4449C98.8243 73.8206 98.4105 75.1255 98.4105 76.378V106.545Z" fill="#B78C57"/>
<path d="M110.363 106.545V76.378C110.363 75.1255 109.949 73.8206 109.328 73.1943H114.759C114.139 73.8206 113.725 75.1255 113.725 76.378V106.545C113.725 107.797 114.139 109.102 114.759 109.728H109.328C109.949 109.102 110.363 107.797 110.363 106.545Z" fill="#B78C57"/>
<path d="M155.492 109.729H151.457C150.009 108.946 148.768 107.746 147.888 106.336L142.405 97.3064C141.629 96.0015 140.387 94.8015 138.99 94.0703H128.955V106.544C128.955 107.796 129.369 109.101 129.99 109.727H124.559C125.179 109.101 125.593 107.796 125.593 106.544V76.377C125.593 75.1246 125.179 73.8196 124.559 73.1934H139.404C146.749 73.1934 152.337 77.6295 152.337 83.5268C152.337 88.9541 147.784 93.1828 141.525 93.9652C143.75 94.644 145.456 95.8439 146.388 97.4102L151.509 105.76C152.544 107.482 154.148 109.1 155.492 109.726V109.729ZM128.955 93.0266H138.836C144.835 93.0266 148.768 89.3217 148.768 83.6318C148.768 77.9419 144.837 74.2371 138.836 74.2371H128.955V93.0266Z" fill="#B78C57"/>
<path d="M193 109.729H188.965C187.517 108.946 186.276 107.746 185.396 106.336L179.913 97.3064C179.137 96.0015 177.894 94.8015 176.498 94.0703H166.463V106.544C166.463 107.796 166.877 109.101 167.498 109.727H162.066C162.687 109.101 163.101 107.796 163.101 106.544V76.377C163.101 75.1246 162.687 73.8196 162.066 73.1934H176.912C184.257 73.1934 189.845 77.6295 189.845 83.5268C189.845 88.9541 185.292 93.1828 179.033 93.9652C181.258 94.644 182.964 95.8439 183.896 97.4102L189.017 105.76C190.052 107.482 191.655 109.1 193 109.726V109.729ZM166.463 93.0266H176.343C182.343 93.0266 186.276 89.3217 186.276 83.6318C186.276 77.9419 182.345 74.2371 176.343 74.2371H166.463V93.0266Z" fill="#B78C57"/>
</g>
<g filter="url(#filter2_d_39_33)">
<path d="M110.754 4.05212C109.322 3.26704 107.743 2.77866 106.18 2.29684C105.314 2.02902 104.446 1.7612 103.579 1.49469C101.196 0.759494 98.7909 0.561254 96.3667 0.149019C93.789 -0.289472 90.791 0.299997 88.3512 1.13234C85.7462 2.02114 83.352 3.44296 81.0748 4.99868C79.0671 6.37061 77.1335 7.85413 75.287 9.44005C74.6104 10.0216 73.9416 10.6203 73.3834 11.3187C72.7887 12.0631 72.3307 12.9073 71.8753 13.7462C70.9579 15.4371 70.0418 17.1268 69.1245 18.8177C68.1043 20.6977 67.0074 22.6631 66.5117 24.7636C66.0094 26.8904 66.1057 29.335 66.2033 31.5104C66.4102 36.0909 67.4069 40.636 69.1531 44.8686C69.5279 45.7771 69.9391 46.6751 70.4869 47.489C71.1622 48.4921 72.0327 49.3454 72.7393 50.3261C73.4497 51.3147 73.991 52.4293 74.7939 53.3443C75.5343 54.1885 76.4711 54.8292 77.421 55.4226C84.6597 59.9454 93.3076 62.1326 101.804 61.5904C102.696 61.5339 103.595 61.4459 104.443 61.1624C105.074 60.9523 105.665 60.6372 106.252 60.3234C109.458 58.6141 112.51 56.8798 115.487 54.7964C116.301 54.2266 117.124 53.6489 117.786 52.9045C118.275 52.3545 118.667 51.7256 119.055 51.0994C119.967 49.629 120.88 48.1586 121.792 46.6882C122.58 45.4187 123.37 44.1465 124.008 42.7956C126.913 36.6541 127.896 28.3582 125.63 21.8596C124.919 19.8247 123.799 17.9644 122.688 16.1211C122.06 15.0827 121.433 14.0429 120.807 13.0044C120.429 12.3769 120.048 11.7454 119.569 11.1914C119.108 10.6597 118.565 10.2081 118.025 9.75907C116.659 8.62346 115.292 7.48784 113.925 6.35223C113.029 5.60784 112.128 4.85952 111.129 4.26349C111.005 4.18997 110.88 4.11776 110.754 4.04949V4.05212ZM124.556 30.9944C124.53 31.299 124.528 31.6023 124.602 31.8976C124.625 31.9909 124.655 32.0814 124.668 32.176C124.705 32.4425 124.606 32.709 124.595 32.9742C124.586 33.1829 124.586 33.3943 124.576 33.6043C124.555 34.035 124.538 34.5142 124.308 34.8936C124.275 34.9474 124.235 34.9973 124.183 35.0314C124.046 35.1207 123.861 35.0787 123.722 34.9933C123.583 34.908 123.468 34.7872 123.327 34.7071C122.932 34.4853 122.383 34.7623 122.029 34.522C121.842 34.3934 121.867 34.0048 121.878 33.8118C121.973 32.3637 122.492 30.9156 122.21 29.4925C122.184 29.3586 122.15 29.226 122.133 29.0895C122.111 28.9057 122.123 28.7192 122.118 28.5341C122.107 28.1429 122.041 27.7556 122.024 27.3631C122.006 26.96 121.975 26.5517 121.824 26.1749C121.799 26.1119 121.769 26.0489 121.753 25.9833C121.734 25.9045 121.733 25.8218 121.73 25.7391C121.72 25.3557 121.69 24.9724 121.621 24.5943C121.509 23.972 121.295 23.372 121.083 22.776C120.909 22.2863 120.78 21.7493 120.539 21.2885C120.418 21.0588 120.261 20.85 120.135 20.6229C119.966 20.3209 119.854 19.9914 119.721 19.6737C118.966 17.8633 117.557 16.431 116.389 14.8595C116.124 14.5037 115.862 14.1256 115.496 13.867C115.134 13.611 114.831 13.2893 114.484 13.0071C113.973 12.5948 113.428 12.2299 112.883 11.8662C112.243 11.4395 111.603 11.0115 110.964 10.5849C110.728 10.4273 110.491 10.2698 110.234 10.149C109.98 10.0308 109.711 9.95075 109.443 9.87198C107.83 9.39673 106.218 8.92016 104.606 8.44491C103.83 8.21648 103.051 7.98804 102.25 7.86726C101.854 7.80818 101.453 7.77405 101.054 7.78324C100.907 7.78717 100.273 7.9224 100.173 7.76617C100.071 7.606 100.553 7.37231 100.656 7.30142C101.012 7.05592 101.374 6.8196 101.741 6.59117C101.905 6.48877 102.082 6.39687 102.23 6.27609C102.384 6.15136 102.502 6.00301 102.704 5.95181C102.779 5.93212 102.858 5.92818 102.937 5.92424C103.758 5.87173 104.56 5.6643 105.367 5.49494C105.877 5.3886 106.394 5.2967 106.914 5.3072C107.283 5.31508 107.648 5.37416 108.013 5.43324C108.512 5.51463 109.077 5.52382 109.525 5.77458C109.962 6.01745 110.337 6.36405 110.796 6.56754C111.25 6.7684 111.757 6.88131 112.135 7.2069C112.364 7.40514 112.526 7.66771 112.736 7.88564C113.319 8.49217 114.222 8.71405 114.776 9.34684C114.91 9.50044 115.021 9.67374 115.151 9.82997C115.604 10.3761 116.271 10.6886 116.813 11.1454C117.118 11.4028 117.314 11.7599 117.604 12.0198C117.89 12.2771 118.132 12.4596 118.349 12.7996C118.823 13.544 119.295 14.2871 119.769 15.0315C120.002 15.3964 120.23 15.7654 120.467 16.1277C120.671 16.4415 120.908 16.7119 121.087 17.0506C121.229 17.3171 121.275 17.627 121.435 17.8909C121.575 18.1219 121.769 18.3162 121.903 18.5512C122.128 18.9425 122.176 19.4085 122.318 19.8378C122.447 20.2277 122.654 20.5861 122.814 20.9629C123.095 21.6299 123.226 22.3467 123.436 23.0372C123.641 23.712 124.01 24.2726 124.109 24.9776C124.14 25.1969 124.135 25.42 124.166 25.6393C124.206 25.915 124.305 26.1789 124.364 26.4506C124.435 26.7828 124.447 27.1215 124.447 27.4602C124.447 27.7333 124.53 27.9827 124.545 28.2571C124.554 28.4396 124.545 28.6221 124.559 28.8046C124.577 29.0527 124.638 29.2969 124.659 29.545C124.701 30.0255 124.599 30.5126 124.558 30.9931L124.556 30.9944ZM95.1228 45.0524C94.6049 45.1679 94.1078 45.0248 93.4091 44.5588C92.3707 43.8656 91.089 43.2604 90.2133 42.3755C89.3063 41.4578 88.3851 40.5204 87.7956 39.3691C87.59 38.9673 87.4274 38.5433 87.2218 38.1416C86.7273 37.174 85.9895 36.3456 85.5393 35.3557C85.3363 34.9093 85.1945 34.4367 85.0735 33.9601C84.2654 30.7909 84.3318 27.3985 85.2635 24.2634C85.3962 23.8184 85.5471 23.3746 85.7878 22.9795C86.0481 22.5528 86.4072 22.1957 86.6896 21.7835C86.9134 21.4566 87.0253 21.0771 87.2205 20.7463C87.4274 20.3945 87.7488 20.1529 88.0546 19.8785C89.9218 18.2033 91.8255 16.5032 94.0896 15.4371C95.3401 14.849 96.6842 14.4643 98.0544 14.3042C98.9288 14.2018 99.811 14.1899 100.692 14.1768C102.097 14.1571 103.53 14.1427 104.873 14.5615C106.287 15.0039 107.513 15.9019 108.687 16.8117C109.907 17.7583 111.106 18.7363 112.24 19.7853C112.769 20.2737 113.285 20.7804 113.716 21.3594C114.485 22.3952 114.951 23.6254 115.337 24.8595C115.885 26.6121 116.282 28.4383 116.309 30.2828C116.323 31.2215 116.239 32.1642 116.022 33.0779C115.934 33.4442 115.848 34.0757 115.613 34.3737C115.342 34.715 114.828 34.6704 114.387 34.7505C108.359 35.8454 103.808 39.1157 99.409 42.2783C98.3914 43.0096 97.3726 43.7409 96.3355 44.4432C95.8697 44.7596 95.4923 44.9697 95.1254 45.0511L95.1228 45.0524ZM90.3122 45.2598C90.2939 45.3688 90.2302 45.4791 90.1014 45.588C89.8437 45.8047 89.4716 45.7981 89.1385 45.7613C88.2706 45.6642 87.4235 45.4397 86.5803 45.2139C85.9349 45.0419 85.2882 44.8699 84.6519 44.6651C82.743 44.052 80.9291 43.1409 79.2857 41.9856C78.0014 41.0836 76.8199 40.0321 75.7737 38.8571C74.6898 37.6387 73.9143 36.2826 73.0398 34.9211C72.8967 34.698 72.7536 34.4748 72.6482 34.2319C72.5753 34.0625 72.5207 33.8866 72.466 33.7107C71.5773 30.8277 70.6873 27.9394 70.0744 24.9829C69.956 24.4092 69.8935 23.8656 69.9182 23.2801C69.9364 22.8547 69.7439 22.4307 69.8428 22.0001C69.9208 21.6627 70.3489 21.6719 70.6339 21.6167C71.1088 21.5235 71.5864 21.4447 72.0691 21.4132C72.6599 21.3738 73.2519 21.4054 73.844 21.4132C76.678 21.4579 79.5043 21.0168 82.2563 20.3288C82.527 20.2606 82.799 20.191 83.0774 20.1608C83.3923 20.1266 83.7098 20.1463 84.0247 20.1175C84.4801 20.0741 84.8783 19.8116 85.3298 19.7564C85.9297 19.6829 85.3142 20.3446 85.1919 20.5362C84.7534 21.2202 84.3747 21.9528 83.9687 22.6578C83.8113 22.9309 83.6525 23.2066 83.5524 23.5072C83.4886 23.7002 83.4483 23.8998 83.4092 24.098C83.0891 25.7312 82.7677 27.3644 82.4476 28.9976C82.4138 29.1682 82.38 29.3415 82.3982 29.5135C82.4125 29.6553 82.4606 29.7905 82.4893 29.931C82.5205 30.082 82.5296 30.2369 82.54 30.3905C82.5882 31.2005 82.4984 32.1747 82.8068 32.9269C83.149 33.7593 83.2648 34.7478 83.4704 35.6261C83.5563 35.9911 83.6421 36.3574 83.7762 36.7066C83.957 37.174 84.2225 37.6033 84.4853 38.0287C84.9811 38.8282 85.4755 39.6277 85.9713 40.4285C86.3955 41.1138 86.8223 41.8018 87.3493 42.4083C87.8763 43.0149 88.4879 43.4652 89.145 43.9128C89.3883 44.0783 89.6056 44.3028 89.8346 44.4944C90.0506 44.6743 90.3629 44.9421 90.3109 45.2624L90.3122 45.2598ZM100.179 12.1839C99.8436 12.1918 99.5078 12.2154 99.1721 12.239C98.8286 12.2627 98.4838 12.2863 98.1403 12.3099C97.396 12.3611 96.6894 12.4373 95.9881 12.6854C95.8306 12.7419 94.9718 13.0425 95.2255 12.5935C95.3778 12.3257 95.7187 12.1629 95.9178 11.9318C96.1286 11.6876 96.3381 11.4421 96.5476 11.1966C96.8482 10.8435 97.15 10.4903 97.4506 10.1385C97.6003 9.96388 97.7577 9.76564 97.962 9.65273C98.2678 9.48206 98.8429 9.54508 99.1825 9.53852C99.7004 9.52933 100.217 9.52407 100.735 9.53589C101.75 9.55821 102.769 9.64486 103.76 9.87986C104.143 9.97044 104.52 10.0833 104.897 10.1963C105.519 10.3827 106.141 10.5678 106.762 10.7542C107.37 10.9354 107.979 11.1179 108.551 11.3909C109.171 11.685 109.741 12.0828 110.381 12.3283C110.629 12.4242 110.887 12.4964 111.126 12.6132C111.309 12.7025 111.478 12.8167 111.643 12.9349C112.053 13.2289 112.42 13.5782 112.793 13.9156C113.145 14.2346 113.575 14.3895 113.919 14.7335C114.637 15.4503 115.137 16.3601 115.829 17.1018C116.183 17.4813 116.588 17.8187 116.873 18.2545C117.009 18.4646 117.115 18.6917 117.228 18.9149C117.513 19.4781 117.847 20.0137 118.189 20.5428C118.64 21.2399 119.129 21.9279 119.423 22.7103C119.569 23.1002 119.588 23.4823 119.674 23.8814C119.765 24.3107 119.858 24.7492 119.967 25.1759C120.093 25.6669 120.251 26.1526 120.33 26.6541C120.404 27.1228 120.408 27.5994 120.412 28.0733C120.421 29.0973 120.43 30.1214 120.439 31.1467C120.443 31.5694 120.446 31.9961 120.359 32.4083C120.269 32.835 120.081 33.2459 120.071 33.6831C120.067 33.8459 120.114 34.0245 120.059 34.182C119.985 34.3986 119.733 34.3461 119.553 34.3474C119.501 34.3474 119.449 34.3474 119.397 34.3395C119.344 34.3317 119.292 34.3146 119.238 34.3067C119.172 34.2975 119.105 34.3002 119.039 34.3028C118.862 34.3107 118.684 34.3159 118.507 34.3225C118.319 34.329 118.131 34.3343 117.943 34.3409C117.816 34.3448 117.603 34.4052 117.517 34.2831C117.485 34.2385 117.471 34.182 117.463 34.1269C117.433 33.9194 117.493 33.7238 117.532 33.523C117.604 33.1606 117.619 32.839 117.635 32.4753C117.652 32.0919 117.748 31.7178 117.802 31.3384C117.881 30.7633 117.916 30.1148 117.855 29.5385C117.789 28.9109 117.634 28.2926 117.619 27.6598C117.613 27.3893 117.635 27.1189 117.627 26.8497C117.617 26.532 117.566 26.2183 117.515 25.9045C117.484 25.7141 117.453 25.5211 117.394 25.3373C117.294 25.0196 117.118 24.7334 116.988 24.4275C116.858 24.1216 116.787 23.8236 116.705 23.519C116.523 22.8429 116.312 22.1668 115.962 21.5576C115.851 21.3647 115.726 21.1795 115.603 20.9957C115.107 20.2592 114.612 19.5227 114.117 18.7849C113.98 18.5814 113.842 18.3766 113.678 18.1941C113.374 17.8567 112.987 17.6047 112.701 17.2502C112.445 16.9325 112.157 16.603 111.85 16.3325C111.661 16.1671 111.45 16.0279 111.241 15.8901C110.825 15.6157 110.407 15.3413 109.99 15.0669C109.319 14.6245 108.628 14.1414 107.871 13.8591C107.054 13.5545 106.236 13.2316 105.385 13.0071C104.508 12.7773 103.617 12.6106 102.726 12.4478C102.083 12.3309 101.439 12.2141 100.786 12.1865C100.584 12.1773 100.382 12.1773 100.181 12.1826L100.179 12.1839ZM102.963 3.62282C102.96 4.27005 101.997 4.63109 101.533 4.91729C100.803 5.36891 100.071 5.81921 99.3413 6.27083C98.8065 6.60167 98.2574 6.94433 97.88 7.44977C97.5729 7.86201 97.3843 8.37402 96.9861 8.69829C96.8013 8.84927 96.5814 8.94905 96.3797 9.07771C96.0857 9.26676 95.8345 9.51488 95.5912 9.76826C94.9263 10.4628 94.3108 11.2071 93.7513 11.9909C93.6016 12.201 93.4559 12.4137 93.2919 12.6106C93.0187 12.9401 92.696 13.2237 92.3746 13.5059C91.8645 13.9549 91.3544 14.4039 90.8444 14.8516C90.3642 15.2744 89.8502 15.8402 89.2764 16.129C88.8041 16.3666 88.2497 16.4178 87.7787 16.687C87.3311 16.943 86.9069 17.2384 86.4358 17.4484C86.0286 17.6296 85.594 17.7425 85.162 17.8528C83.5419 18.265 81.9141 18.6444 80.2785 18.9871C79.9376 19.0593 79.5954 19.1289 79.2479 19.1683C78.9617 19.1998 78.6728 19.2103 78.3865 19.2431C77.1166 19.3875 75.9233 19.9599 74.6521 20.1056C73.5382 20.233 72.2149 20.0978 71.1466 19.742C70.8564 19.6461 70.8304 19.7078 70.8122 19.3954C70.7979 19.1696 70.928 18.8926 71.01 18.6891C71.1882 18.2414 71.4394 17.8265 71.5773 17.3631C71.7113 16.9102 71.7438 16.3995 72.0522 16.0463C72.5454 15.4818 73.4445 15.6275 74.1107 15.6275C76.5089 15.6275 78.9239 15.2757 81.2024 14.5129C84.2888 13.481 87.076 11.6443 89.1046 9.06326C90.3434 7.48785 91.2764 5.68793 91.9387 3.7948C92.0246 3.5493 92.0727 3.23947 92.195 3.01234C92.3551 2.71695 92.467 2.72745 92.8235 2.64868C93.5066 2.49639 94.1989 2.39005 94.8963 2.32966C96.2899 2.21019 97.7005 2.27583 99.0758 2.5279C99.4011 2.58829 99.7238 2.65787 100.048 2.72745C100.395 2.80229 100.743 2.87843 101.091 2.95326C101.713 3.08849 102.335 3.2224 102.957 3.35762C102.959 3.4574 102.961 3.54405 102.961 3.62019L102.963 3.62282ZM90.2757 3.12656C90.3213 3.19745 90.333 3.32218 90.2965 3.51779C90.2107 3.98779 89.8021 4.53919 89.577 4.95798C89.335 5.40567 89.0825 5.84941 88.8314 6.29184C88.5894 6.7172 88.3473 7.14257 88.0702 7.54561C86.7377 9.47812 84.6844 10.7582 82.6923 11.9844C82.4762 12.117 82.2602 12.2495 82.0312 12.3559C81.7267 12.4964 81.4015 12.5896 81.0788 12.6802C80.5674 12.8246 80.056 12.969 79.5459 13.1147C78.3618 13.4495 77.1673 13.7856 75.9416 13.9247C75.3469 13.993 74.7561 14.0009 74.1589 13.9641C73.5044 13.9234 73.7152 13.7173 74.0509 13.3169C74.3385 12.9729 74.6377 12.6408 74.95 12.3191C75.5733 11.6758 76.2434 11.0798 76.9539 10.5363C77.4197 10.1792 77.9077 9.84047 78.2915 9.3941C78.6377 8.99106 78.894 8.50268 79.313 8.1784C79.6943 7.88301 80.1731 7.75304 80.5947 7.52198C80.9538 7.32505 81.2674 7.05592 81.5901 6.80385C83.3038 5.46081 85.3259 4.51949 87.4508 4.07575C88.0233 3.95628 88.6167 3.86701 89.119 3.56637C89.3727 3.41407 90.0962 2.84036 90.2783 3.1305L90.2757 3.12656ZM68.4283 26.1513C68.4348 26.1513 68.4414 26.1526 68.4479 26.1552C68.457 26.1592 68.4635 26.1671 68.47 26.1736C68.6482 26.3548 68.6417 26.5609 68.6704 26.8117C68.699 27.0559 68.7198 27.3014 68.7654 27.5429C69.1076 29.3245 69.7074 31.0062 70.2162 32.7431C70.388 33.3287 70.5558 33.9234 70.8538 34.4551C71.1778 35.034 71.6501 35.529 71.8909 36.1473C71.9859 36.3915 72.0418 36.6488 72.1498 36.8878C72.3099 37.2436 72.5727 37.5403 72.829 37.8343C73.4367 38.5328 74.0223 39.2496 74.5844 39.9848C74.9136 40.4154 75.2038 40.8762 75.5629 41.2819C75.922 41.6876 76.3775 41.9895 76.7847 42.3453C77.6839 43.1264 78.6494 43.8288 79.6695 44.4419C80.0404 44.6638 80.4177 44.8752 80.8146 45.0458C81.3832 45.2913 81.9844 45.4515 82.583 45.6104C83.6539 45.8952 84.726 46.1801 85.7969 46.465C86.7729 46.725 87.7566 46.9836 88.7637 47.0847C89.2712 47.1359 89.78 47.1411 90.2887 47.0939C90.5178 47.0716 91.3258 47.1438 90.994 47.5704C90.8261 47.7857 90.1886 47.8645 89.9348 47.963C89.2543 48.2255 88.5607 48.4527 87.8555 48.6365C86.3773 49.0238 84.8536 49.2207 83.3259 49.2207C80.7092 49.2207 78.2239 47.9275 76.1185 46.4637C74.1823 45.118 72.4231 43.5098 70.8148 41.7834C70.4765 41.4211 70.1459 41.0521 69.8232 40.6767C69.5903 40.4049 69.563 40.1502 69.4693 39.7957C69.2897 39.1118 69.1089 38.4264 68.9293 37.7424C68.7107 36.9101 68.4908 36.0699 68.4531 35.21C68.4361 34.8148 68.457 34.4183 68.4153 34.0245C68.3802 33.6884 68.2982 33.3588 68.2488 33.0241C68.1733 32.5173 68.172 32.004 68.1694 31.492C68.1668 30.9327 68.1642 30.3747 68.1629 29.8155C68.1603 29.163 68.1577 28.5092 68.1915 27.858C68.2071 27.5547 68.211 27.2502 68.2345 26.9469C68.2462 26.7933 68.2644 26.641 68.2865 26.4874C68.3021 26.3732 68.2631 26.2196 68.3893 26.1592C68.401 26.1539 68.4153 26.1487 68.4283 26.15V26.1513ZM72.397 45.869C72.4062 45.8598 72.4192 45.8545 72.4348 45.8519C72.738 45.7994 73.209 46.3836 73.4406 46.5714C75.8817 48.5459 78.7977 49.994 81.8165 50.825C82.3071 50.9602 82.8081 51.0797 83.3168 51.0823C83.8725 51.0849 84.419 50.9458 84.9577 50.8092C86.3422 50.4561 87.7267 50.1042 89.1111 49.7511C89.9309 49.5423 90.7546 49.3323 91.5392 49.0146C92.0285 48.8163 92.5008 48.5774 92.9731 48.3398C93.5847 48.0312 94.195 47.7214 94.8066 47.4129C95.8202 46.8996 96.8352 46.3862 97.8202 45.8178C99.4493 44.8778 100.953 43.7724 102.446 42.6223C103.12 42.1037 103.828 41.6337 104.536 41.1637C105.734 40.3668 106.933 39.5699 108.132 38.7743C108.596 38.4658 109.063 38.1573 109.571 37.9354C110.028 37.7372 110.512 37.6138 110.994 37.4904C111.884 37.2619 112.775 37.0348 113.665 36.8064C115.066 36.448 116.474 36.0869 117.914 35.9452C119.156 35.8218 120.408 35.8769 121.617 36.2038C122.261 36.3784 123.789 36.2222 124.093 37.0099C124.144 37.1425 124.111 37.2908 124.076 37.4287C123.967 37.8698 123.859 38.3109 123.749 38.752C123.718 38.8807 123.686 39.0107 123.634 39.1328C123.557 39.3113 123.438 39.4688 123.373 39.6513C123.317 39.8076 123.302 39.9795 123.213 40.12C123.113 40.2802 122.926 40.3143 122.753 40.2999C122.358 40.2644 121.979 40.1502 121.591 40.0806C121.204 40.0097 120.775 40.0478 120.381 40.0465C119.535 40.0439 118.689 40.057 117.843 40.0846C117.366 40.1003 116.887 40.1213 116.413 40.1857C115.873 40.2605 115.344 40.3918 114.814 40.5231C113.141 40.9392 111.462 41.3567 109.85 41.9711C108.296 42.5632 106.616 43.3496 105.413 44.5325C104.644 45.2874 103.655 45.7469 102.856 46.4598C102.508 46.7696 102.243 47.1556 101.893 47.472C101.535 47.7949 101.153 48.0903 100.836 48.4566C100.557 48.7796 100.337 49.1485 100.087 49.4964C99.3816 50.4771 98.4552 51.2674 97.4819 51.9659C96.5359 52.6446 95.5691 53.4139 94.5086 53.8931C94.0649 54.094 93.5977 54.2358 93.1293 54.3684C92.2653 54.6139 91.3909 54.8318 90.4982 54.9329C89.3571 55.0616 88.2042 54.9946 87.0591 54.9276C86.6284 54.9027 86.199 54.8778 85.7683 54.8528C85.2257 54.8213 84.6805 54.7898 84.1444 54.6966C83.3403 54.5574 82.5634 54.2581 81.7502 54.2056C80.4581 54.1229 79.1113 53.3325 78.0755 52.5934C76.505 51.4735 75.2844 49.9323 74.0873 48.4133C73.8817 48.152 72.0587 46.1867 72.3957 45.8729L72.397 45.869ZM84.8679 56.9389C85.0657 56.7367 86.0377 57.0348 86.3278 57.0558C86.9043 57.0965 87.4833 57.0807 88.0585 57.0229C91.9426 56.637 95.7304 55.286 98.9913 53.1212C99.5039 52.7798 100.011 52.4135 100.402 51.9343C100.808 51.4355 101.069 50.8355 101.441 50.3104C102.482 48.836 104.248 48.1048 105.67 47.002C106.579 46.2983 107.357 45.4344 108.273 44.7399C110.244 43.2472 112.718 42.6354 115.116 42.0578C116.382 41.7532 117.664 41.4591 118.968 41.3909C119.552 41.3607 120.137 41.3974 120.715 41.4972C121.186 41.5786 121.669 41.5353 122.071 41.8097C122.561 42.1444 122.429 42.4529 122.187 42.9164C121.868 43.5242 121.498 44.1111 121.155 44.7071C120.889 45.1679 120.558 45.8362 120.062 46.0895C119.561 46.3456 118.904 46.2392 118.362 46.23C117.806 46.2208 117.277 46.2024 116.714 46.2733C115.385 46.4388 114.088 46.7932 112.798 47.1464C112.555 47.2133 112.312 47.279 112.078 47.3722C111.838 47.468 111.61 47.5901 111.384 47.7135C109.631 48.668 107.914 49.6881 106.235 50.7685C106.009 50.9143 105.782 51.0613 105.581 51.2385C105.245 51.5326 104.983 51.9002 104.724 52.2652C103.521 53.9614 102.295 55.6917 101.572 57.6623C101.447 58.0036 101.428 58.3752 101.315 58.7205C101.181 59.134 100.805 59.1655 100.411 59.264C99.4792 59.4964 98.5124 59.516 97.5586 59.5357C96.7662 59.5515 95.9725 59.5686 95.18 59.5843C94.2249 59.604 93.2542 59.6211 92.333 59.3677C92.0011 59.2758 91.6784 59.1498 91.3388 59.0881C91.0343 59.0316 90.722 59.029 90.415 58.9935C89.6928 58.9108 89.0031 58.6522 88.3239 58.3896C87.728 58.1599 87.1333 57.9249 86.5412 57.6859C86.2355 57.5625 85.931 57.4378 85.6265 57.3131C85.404 57.2212 85.011 57.1398 84.8692 56.9389H84.8679ZM103.24 58.5944C102.999 58.3292 103.311 57.8238 103.424 57.5691C103.62 57.1332 103.637 56.7157 103.928 56.3048C104.26 55.8361 104.592 55.3688 104.922 54.9001C105.264 54.4169 105.612 53.9272 106.069 53.5544C106.58 53.1369 107.22 52.8704 107.63 52.3518C107.849 52.0748 107.988 51.7414 108.214 51.4709C108.454 51.1847 108.778 50.9852 109.095 50.7895C109.522 50.5283 109.947 50.267 110.374 50.0071C110.676 49.822 110.978 49.6369 111.301 49.4951C111.588 49.3677 111.89 49.2758 112.192 49.1879C113.439 48.8255 114.707 48.5393 115.988 48.3306C116.529 48.2426 117.029 48.156 117.548 48.001C117.889 47.8986 118.524 47.791 118.597 48.2873C118.654 48.6811 118.331 48.9712 118.127 49.2588C117.872 49.6172 117.651 50.0058 117.415 50.3786C117.276 50.5979 117.137 50.8171 116.969 51.014C116.772 51.2451 116.539 51.4407 116.305 51.6337C114.962 52.7391 113.553 53.7592 112.145 54.7793C111.832 55.0064 111.519 55.2335 111.189 55.4331C110.222 56.0173 109.119 56.3613 108.201 57.0229C107.592 57.4614 107.042 58.0483 106.309 58.1993C106.05 58.2531 105.782 58.2465 105.518 58.24C105.012 58.2281 104.762 58.2951 104.305 58.4736C104.059 58.5708 103.534 58.8189 103.28 58.6338C103.264 58.622 103.251 58.6102 103.238 58.5971L103.24 58.5944Z" fill="#B78C57"/>
</g>
</g>
<defs>
<filter id="filter0_d_39_33" x="-31.2289" y="57.3434" width="255.466" height="147.7" filterUnits="userSpaceOnUse" color-interpolation-filters="sRGB">
<feFlood flood-opacity="0" result="BackgroundImageFix"/>
<feColorMatrix in="SourceAlpha" type="matrix" values="0 0 0 0 0 0 0 0 0 0 0 0 0 0 0 0 0 0 127 0" result="hardAlpha"/>
<feOffset dy="4"/>
<feGaussianBlur stdDeviation="35.05"/>
<feComposite in2="hardAlpha" operator="out"/>
<feColorMatrix type="matrix" values="0 0 0 0 0.816613 0 0 0 0 0.600844 0 0 0 0 0.24123 0 0 0 1 0"/>
<feBlend mode="normal" in2="BackgroundImageFix" result="effect1_dropShadow_39_33"/>
<feBlend mode="normal" in="SourceGraphic" in2="effect1_dropShadow_39_33" result="shape"/>
</filter>
<filter id="filter1_d_39_33" x="-70.1" y="6.57188" width="333.2" height="177.778" filterUnits="userSpaceOnUse" color-interpolation-filters="sRGB">
<feFlood flood-opacity="0" result="BackgroundImageFix"/>
<feColorMatrix in="SourceAlpha" type="matrix" values="0 0 0 0 0 0 0 0 0 0 0 0 0 0 0 0 0 0 127 0" result="hardAlpha"/>
<feOffset dy="4"/>
<feGaussianBlur stdDeviation="35.05"/>
<feComposite in2="hardAlpha" operator="out"/>
<feColorMatrix type="matrix" values="0 0 0 0 0.816613 0 0 0 0 0.600844 0 0 0 0 0.24123 0 0 0 1 0"/>
<feBlend mode="normal" in2="BackgroundImageFix" result="effect1_dropShadow_39_33"/>
<feBlend mode="normal" in="SourceGraphic" in2="effect1_dropShadow_39_33" result="shape"/>
</filter>
<filter id="filter2_d_39_33" x="-3.975" y="-66.1" width="200.954" height="201.872" filterUnits="userSpaceOnUse" color-interpolation-filters="sRGB">
<feFlood flood-opacity="0" result="BackgroundImageFix"/>
<feColorMatrix in="SourceAlpha" type="matrix" values="0 0 0 0 0 0 0 0 0 0 0 0 0 0 0 0 0 0 127 0" result="hardAlpha"/>
<feOffset dy="4"/>
<feGaussianBlur stdDeviation="35.05"/>
<feComposite in2="hardAlpha" operator="out"/>
<feColorMatrix type="matrix" values="0 0 0 0 0.816613 0 0 0 0 0.600844 0 0 0 0 0.24123 0 0 0 1 0"/>
<feBlend mode="normal" in2="BackgroundImageFix" result="effect1_dropShadow_39_33"/>
<feBlend mode="normal" in="SourceGraphic" in2="effect1_dropShadow_39_33" result="shape"/>
</filter>
<clipPath id="clip0_39_33">
<rect width="193" height="131" fill="white"/>
</clipPath>
</defs>
</svg>
